<svg xmlns="http://www.w3.org/2000/svg" viewBox="0 0 180.1 20.2"><defs><style>.cls-1{fill:#fff;}</style></defs><title>Asset 1</title><g id="Layer_2" data-name="Layer 2"><g id="Layer_1-2" data-name="Layer 1"><path id="T" class="cls-1" d="M174.1,2.1h-3.6V.1h9.6v2h-3.6V20h-2.3l-.1-17.9Z"/><path id="N" class="cls-1" d="M158.8,20V.1h2.1l3.7,9.4c.8,2.2,1.9,4.8,2.5,7h.1c-.2-3.1-.3-5.7-.3-9.2V.2h2V20h-2.1L163,10.4a66.4,66.4,0,0,1-2.4-6.8h-.1c.2,2.7.2,5.2.2,9.5V20Z"/><path id="E" class="cls-1" d="M156.3,10.5h-5V18H157v2h-8V.1h7.6v2h-5.3V8.7h5Z"/><path id="M" class="cls-1" d="M144.1,11.4c-.1-2.6-.3-5.6-.2-7.8h-.1c-.4,2.2-1,4.6-1.6,6.9l-2.4,9.4h-1.5l-2.3-9c-.7-2.5-1.2-5-1.7-7.3h-.1c0,2.3-.1,5.1-.2,8l-.4,8.4h-2L132.8.1h2.5l2.3,9.1c.7,2.6,1.2,4.6,1.6,6.9h.1c.4-2.3.8-4.2,1.5-6.9L143,.1h2.5L146.7,20h-2.1Z"/><path id="N-2" data-name="N" class="cls-1" d="M119,20V.1h2.1l3.7,9.4c.8,2.2,1.9,4.8,2.5,7h.1c-.2-3.1-.3-5.7-.3-9.2V.2h2V20H127l-3.8-9.6a66.4,66.4,0,0,1-2.4-6.8h-.1c.2,2.7.2,5.2.2,9.5V20Z"/><path id="I" class="cls-1" d="M116.1.1V20h-2.3V.1Z"/><path id="A" class="cls-1" d="M104.1,14l-1.3,6h-2.2L105.2.1h2.5L112.1,20h-2.2l-1.3-6Zm4.1-1.8-1-5.1c-.3-1.4-.6-3.1-.8-4.6h-.1c-.2,1.5-.5,3.2-.8,4.6l-1,5.1Z"/><path id="T-2" data-name="T" class="cls-1" d="M95.6,2.1H92V.1h9.6v2H98V20H95.7L95.6,2.1Z"/><path id="R" class="cls-1" d="M82.3.4A11.06,11.06,0,0,1,85.6,0c2,0,3.5.4,4.5,1.4a5.21,5.21,0,0,1,1.4,3.9,5.22,5.22,0,0,1-3.2,5.1v.1c1.5.4,2.2,1.9,2.7,4.5a27.11,27.11,0,0,0,1.2,5H89.9a26.4,26.4,0,0,1-1.1-4.9c-.4-2.8-1.3-3.8-3.3-3.8h-.9V20H82.4L82.3.4Zm2.2,9.2h1c2.2,0,3.6-1.6,3.6-4s-.9-3.7-3.4-3.8a4.12,4.12,0,0,0-1.2.1Z"/><path id="E-2" data-name="E" class="cls-1" d="M79.8,10.5h-5V18h5.7v2h-8V.1h7.6v2H74.8V8.7h5Z"/><path id="T-3" data-name="T" class="cls-1" d="M65.1,2.1H61.5V.1H71v2H67.4V20H65.1Z"/><path id="N-3" data-name="N" class="cls-1" d="M49.7,20V.1h2.1l3.7,9.4c.8,2.2,1.9,4.8,2.5,7h.1c-.2-3.1-.3-5.7-.3-9.2V.2h2V20H57.7L54,10.4a66.4,66.4,0,0,1-2.4-6.8h-.1c.2,2.7.2,5.2.2,9.5V20Z"/><path id="E-3" data-name="E" class="cls-1" d="M47.3,10.5h-5V18H48v2H40V.1h7.6v2H42.3V8.7h5Z"/><path id="J_-_right" data-name="J - right" class="cls-1" d="M18.1,16.8,21,13.6a4.79,4.79,0,0,0,3.6,2c1.7,0,2.6-.7,2.6-3.1v-8H19.8V.2H32.4V13c0,3.9-2,7.2-7.6,7.2A9,9,0,0,1,18.1,16.8Z"/><path id="J_-_left" data-name="J - left" class="cls-1" d="M0,16.8l2.9-3.2a4.79,4.79,0,0,0,3.6,2c1.7,0,2.6-.7,2.6-3.1v-8H1.7V.2H14.3V13c0,3.9-2,7.2-7.6,7.2A9.15,9.15,0,0,1,0,16.8Z"/></g></g></svg>