<svg xmlns="http://www.w3.org/2000/svg" viewBox="0 0 654.5 505.78"><defs><style>.cls-1{fill:#ffc908;}.cls-2{fill:#eae8e8;}.cls-3{fill:#fbb416;}</style></defs><title>minimap_2</title><g id="Layer_2" data-name="Layer 2"><g id="Layer_3" data-name="Layer 3"><rect class="cls-1" y="86.32" width="654.5" height="23.08" rx="11.54"/><rect class="cls-1" x="119.68" y="234.97" width="248.56" height="9.67" rx="4.83"/><rect class="cls-1" x="311.26" y="153.76" width="144.54" height="9.67" rx="4.83" transform="translate(542.12 -224.93) rotate(90)"/><rect class="cls-1" x="152.62" y="49.87" width="109.4" height="9.67" rx="4.83" transform="translate(262.02 -152.62) rotate(90)"/><rect class="cls-1" x="231.76" y="49.87" width="109.4" height="9.67" rx="4.83" transform="translate(341.16 -231.76) rotate(90)"/><rect class="cls-1" x="172.87" y="210.19" width="59.24" height="9.67" rx="4.83" transform="translate(417.51 12.54) rotate(90)"/><rect class="cls-1" x="313.84" y="320.86" width="135.6" height="9.67" rx="4.83" transform="translate(707.33 -55.95) rotate(90)"/><rect class="cls-1" x="-121.67" y="241.35" width="505.78" height="23.08" rx="11.54" transform="translate(384.11 121.67) rotate(90)"/><rect class="cls-1" x="327.58" y="185.21" width="393.49" height="23.08" rx="11.54" transform="translate(721.07 -327.58) rotate(90)"/><rect class="cls-1" y="370.41" width="654.5" height="23.08" rx="11.54"/><circle class="cls-2" cx="212.59" cy="350.08" r="5.26"/><circle class="cls-2" cx="358.97" cy="350.08" r="5.26"/><rect class="cls-2" x="156.72" y="355.34" width="10.84" height="10.84"/><rect class="cls-2" x="241.42" y="399.32" width="10.84" height="10.84"/><path class="cls-3" d="M252.26,317.24a10.95,10.95,0,0,0-9.64,16.16l9,16.36a.69.69,0,0,0,1.2,0l9-16.36a10.95,10.95,0,0,0-9.64-16.16Zm0,16.43a5.48,5.48,0,1,1,5.48-5.48A5.48,5.48,0,0,1,252.26,333.67Z"/></g><g id="Layer_4_copy" data-name="Layer 4 copy"><path class="cls-3" d="M231.26,308.73h-6.37V297.31h6.37v1.18h-5v3.68H231v1.17h-4.74v4.2h5Z"/><path class="cls-3" d="M235.47,308.73l-3.25-8.56h1.39l1.85,5.08a23.49,23.49,0,0,1,.73,2.31h.06a17.31,17.31,0,0,1,.55-1.72c.3-.86,1-2.76,2-5.67h1.39L237,308.73Z"/><path class="cls-3" d="M245.23,308.89a3.94,3.94,0,0,1-3-1.16,4.48,4.48,0,0,1-1.09-3.21,5,5,0,0,1,1-3.29,3.37,3.37,0,0,1,2.73-1.22,3.21,3.21,0,0,1,2.55,1.06,4,4,0,0,1,.94,2.79v.82h-5.9a3.42,3.42,0,0,0,.76,2.29,2.64,2.64,0,0,0,2,.78,6.8,6.8,0,0,0,2.73-.58v1.16a7,7,0,0,1-1.3.43A7.75,7.75,0,0,1,245.23,308.89Zm-.35-7.79a2.12,2.12,0,0,0-1.65.67,3.08,3.08,0,0,0-.72,1.86H247a2.87,2.87,0,0,0-.55-1.88A1.91,1.91,0,0,0,244.88,301.1Z"/><path class="cls-3" d="M254.5,300a5.23,5.23,0,0,1,1,.09l-.18,1.21a4.39,4.39,0,0,0-.94-.12,2.31,2.31,0,0,0-1.78.84,3.11,3.11,0,0,0-.73,2.11v4.59h-1.3v-8.56h1.07l.15,1.58h.06a3.92,3.92,0,0,1,1.15-1.29A2.61,2.61,0,0,1,254.5,300Z"/><path class="cls-3" d="M258.42,308.73h-1.3V296.57h1.3Z"/><path class="cls-3" d="M264.78,308.89a3.93,3.93,0,0,1-3-1.16,4.48,4.48,0,0,1-1.1-3.21,5,5,0,0,1,1-3.29,3.39,3.39,0,0,1,2.74-1.22,3.23,3.23,0,0,1,2.55,1.06,4.09,4.09,0,0,1,.93,2.79v.82H262a3.37,3.37,0,0,0,.77,2.29,2.63,2.63,0,0,0,2,.78,6.89,6.89,0,0,0,2.74-.58v1.16a7.13,7.13,0,0,1-1.31.43A7.67,7.67,0,0,1,264.78,308.89Zm-.35-7.79a2.11,2.11,0,0,0-1.64.67,3.08,3.08,0,0,0-.72,1.86h4.47a2.87,2.87,0,0,0-.54-1.88A1.93,1.93,0,0,0,264.43,301.1Z"/><path class="cls-3" d="M270,297.85a.9.9,0,0,1,.22-.66.81.81,0,0,1,.55-.2.76.76,0,0,1,.54.21.84.84,0,0,1,.23.65.86.86,0,0,1-.23.65.81.81,0,0,1-1.09,0A.89.89,0,0,1,270,297.85Zm1.41,10.88h-1.3v-8.56h1.3Z"/><path class="cls-3" d="M281.2,300.17V301l-1.59.18a2.7,2.7,0,0,1,.39.72,2.62,2.62,0,0,1,.17,1,2.53,2.53,0,0,1-.85,2,3.48,3.48,0,0,1-2.36.75,4,4,0,0,1-.72-.06,1.28,1.28,0,0,0-.83,1.1.56.56,0,0,0,.29.52,2.11,2.11,0,0,0,1,.17h1.52a3.38,3.38,0,0,1,2.13.59,2,2,0,0,1,.75,1.7,2.44,2.44,0,0,1-1.14,2.17,6.18,6.18,0,0,1-3.33.74A4.53,4.53,0,0,1,274,312a2,2,0,0,1-.91-1.77,2,2,0,0,1,.5-1.35,2.49,2.49,0,0,1,1.41-.77,1.36,1.36,0,0,1-.55-.46,1.22,1.22,0,0,1-.23-.73,1.42,1.42,0,0,1,.25-.82,2.75,2.75,0,0,1,.79-.68,2.3,2.3,0,0,1-1.08-.93,3.07,3.07,0,0,1,.43-3.67A3.43,3.43,0,0,1,277,300a4.17,4.17,0,0,1,1.21.16Zm-6.83,10a1.16,1.16,0,0,0,.59,1.05,3.23,3.23,0,0,0,1.68.36,4.62,4.62,0,0,0,2.41-.49,1.47,1.47,0,0,0,.79-1.32,1,1,0,0,0-.43-1,3.36,3.36,0,0,0-1.62-.27h-1.55a2,2,0,0,0-1.38.43A1.49,1.49,0,0,0,274.37,310.17Zm.7-7.26a1.74,1.74,0,0,0,.51,1.36,2,2,0,0,0,1.42.46,1.65,1.65,0,0,0,1.89-1.84A1.7,1.7,0,0,0,277,301a1.87,1.87,0,0,0-1.4.49A2,2,0,0,0,275.07,302.91Z"/><path class="cls-3" d="M288.82,308.73v-5.54a2.21,2.21,0,0,0-.48-1.56,1.93,1.93,0,0,0-1.49-.52,2.47,2.47,0,0,0-2,.74,3.73,3.73,0,0,0-.62,2.4v4.48H283V296.57h1.29v3.68a8.23,8.23,0,0,1-.06,1.1h.08a2.65,2.65,0,0,1,1.09-1A3.5,3.5,0,0,1,287,300a3.35,3.35,0,0,1,2.36.74,3.16,3.16,0,0,1,.78,2.37v5.59Z"/><path class="cls-1" d="M417.14,415.19h-1.56l-4.16-5.54-1.2,1.06v4.48h-1.33V403.76h1.33v5.67l5.18-5.67H417l-4.59,5Z"/><path class="cls-1" d="M418.41,404.3a.85.85,0,0,1,.22-.65.75.75,0,0,1,.54-.21.76.76,0,0,1,.54.21.86.86,0,0,1,.23.65.9.9,0,0,1-.23.66.76.76,0,0,1-.54.21.75.75,0,0,1-.54-.21A.89.89,0,0,1,418.41,404.3Zm1.41,10.89h-1.3v-8.57h1.3Z"/><path class="cls-1" d="M428.42,415.19v-5.54a2.25,2.25,0,0,0-.47-1.57,2,2,0,0,0-1.49-.51,2.46,2.46,0,0,0-2,.72,3.67,3.67,0,0,0-.63,2.4v4.5h-1.29v-8.57h1.05l.21,1.17h.06a2.75,2.75,0,0,1,1.12-1,3.64,3.64,0,0,1,1.6-.34,3.29,3.29,0,0,1,2.33.74,3.2,3.2,0,0,1,.78,2.39v5.59Z"/><path class="cls-1" d="M439.39,406.62v.82l-1.58.19a3,3,0,0,1,.39.72,2.78,2.78,0,0,1,.17,1,2.54,2.54,0,0,1-.86,2,3.46,3.46,0,0,1-2.36.75,4.2,4.2,0,0,1-.72-.06,1.28,1.28,0,0,0-.83,1.1.57.57,0,0,0,.29.52,2.19,2.19,0,0,0,1,.17h1.51a3.41,3.41,0,0,1,2.14.58,2,2,0,0,1,.74,1.71,2.42,2.42,0,0,1-1.14,2.16,6.07,6.07,0,0,1-3.32.75,4.5,4.5,0,0,1-2.59-.63,2,2,0,0,1-.91-1.76,2,2,0,0,1,.5-1.35,2.57,2.57,0,0,1,1.4-.78,1.35,1.35,0,0,1-.55-.46,1.2,1.2,0,0,1-.22-.72,1.33,1.33,0,0,1,.25-.82,2.37,2.37,0,0,1,.79-.68,2.32,2.32,0,0,1-1.08-.93,2.73,2.73,0,0,1-.42-1.5,2.78,2.78,0,0,1,.84-2.17,3.43,3.43,0,0,1,2.39-.76,4.5,4.5,0,0,1,1.21.15Zm-6.82,10a1.16,1.16,0,0,0,.58,1.06,3.23,3.23,0,0,0,1.68.36,4.74,4.74,0,0,0,2.42-.49,1.51,1.51,0,0,0,.78-1.33,1,1,0,0,0-.43-1A3.29,3.29,0,0,0,436,415h-1.56a2,2,0,0,0-1.37.42A1.5,1.5,0,0,0,432.57,416.62Zm.7-7.25a1.72,1.72,0,0,0,.51,1.35,2,2,0,0,0,1.41.47,1.66,1.66,0,0,0,1.9-1.85,1.7,1.7,0,0,0-1.92-1.93,2,2,0,0,0-1.41.49A2,2,0,0,0,433.27,409.37Z"/><path class="cls-1" d="M452,412.15a2.8,2.8,0,0,1-1.1,2.35,4.71,4.71,0,0,1-3,.84,7.44,7.44,0,0,1-3.13-.52v-1.28a8.56,8.56,0,0,0,1.53.47,8.38,8.38,0,0,0,1.64.17,3.28,3.28,0,0,0,2-.51,1.63,1.63,0,0,0,.67-1.4,1.88,1.88,0,0,0-.23-1,2.25,2.25,0,0,0-.8-.7,11.3,11.3,0,0,0-1.7-.73,5.49,5.49,0,0,1-2.28-1.35,3,3,0,0,1-.68-2,2.53,2.53,0,0,1,1-2.1,4.14,4.14,0,0,1,2.63-.78,7.84,7.84,0,0,1,3.13.62l-.41,1.16a7.21,7.21,0,0,0-2.75-.59,2.65,2.65,0,0,0-1.65.45,1.48,1.48,0,0,0-.6,1.26,2,2,0,0,0,.22,1,2.09,2.09,0,0,0,.74.7,9.92,9.92,0,0,0,1.59.7,6.17,6.17,0,0,1,2.47,1.37A2.72,2.72,0,0,1,452,412.15Z"/><path class="cls-1" d="M456.85,414.27a4.91,4.91,0,0,0,.67,0c.21,0,.38-.07.51-.1v1a2.53,2.53,0,0,1-.62.17,5.23,5.23,0,0,1-.74.06c-1.66,0-2.49-.87-2.49-2.62v-5.09H453V407l1.22-.54.55-1.83h.75v2H458v1h-2.48v5a1.71,1.71,0,0,0,.37,1.19A1.28,1.28,0,0,0,456.85,414.27Z"/><path class="cls-1" d="M474.06,415.19h-1.31l-2.31-7.65c-.11-.34-.23-.77-.37-1.28s-.2-.83-.21-.93a16.84,16.84,0,0,1-.54,2.25l-2.24,7.61h-1.31l-3-11.43h1.41l1.8,7.06a27.45,27.45,0,0,1,.55,2.69,19.93,19.93,0,0,1,.62-2.8l2.05-6.95h1.41l2.14,7a22.73,22.73,0,0,1,.64,2.74,23.11,23.11,0,0,1,.56-2.71l1.8-7h1.4Z"/><path class="cls-1" d="M342.36,74.65,340.94,71h-4.58L335,74.65h-1.34l4.51-11.46h1.12l4.49,11.46Zm-1.84-4.82-1.33-3.54c-.17-.45-.35-1-.53-1.65a14.62,14.62,0,0,1-.49,1.65l-1.34,3.54Z"/><path class="cls-1" d="M350.94,73.51h-.07a3.05,3.05,0,0,1-2.69,1.3,3.16,3.16,0,0,1-2.61-1.15,5,5,0,0,1-.94-3.26,5.11,5.11,0,0,1,.94-3.29,3.48,3.48,0,0,1,5.28.09h.1l-.05-.62,0-.6V62.5h1.29V74.65h-1.05Zm-2.6.21a2.37,2.37,0,0,0,1.93-.72,3.64,3.64,0,0,0,.6-2.33V70.4a4.32,4.32,0,0,0-.61-2.6,2.29,2.29,0,0,0-1.93-.78,2,2,0,0,0-1.75.89,4.42,4.42,0,0,0-.6,2.5,4.24,4.24,0,0,0,.6,2.48A2,2,0,0,0,348.34,73.72Z"/><path class="cls-1" d="M358.53,74.81a3.92,3.92,0,0,1-3-1.16,4.48,4.48,0,0,1-1.09-3.21,5,5,0,0,1,1-3.29,3.38,3.38,0,0,1,2.73-1.21,3.23,3.23,0,0,1,2.55,1,4.05,4.05,0,0,1,.94,2.8v.82h-5.9a3.43,3.43,0,0,0,.76,2.29,2.64,2.64,0,0,0,2,.78,6.8,6.8,0,0,0,2.73-.58v1.16a6.35,6.35,0,0,1-2.78.55ZM358.18,67a2.15,2.15,0,0,0-1.65.67,3.14,3.14,0,0,0-.72,1.86h4.48a2.85,2.85,0,0,0-.55-1.88A1.92,1.92,0,0,0,358.18,67Z"/><path class="cls-1" d="M365.19,74.65h-1.3V62.5h1.3Z"/><path class="cls-1" d="M373.2,74.65l-.26-1.21h-.06a3.65,3.65,0,0,1-1.28,1.09,3.87,3.87,0,0,1-1.59.28,2.85,2.85,0,0,1-2-.66,2.38,2.38,0,0,1-.72-1.86q0-2.6,4.14-2.72l1.46,0V69a2.17,2.17,0,0,0-.44-1.49,1.78,1.78,0,0,0-1.38-.48,5.59,5.59,0,0,0-2.42.66l-.4-1a6,6,0,0,1,1.38-.54,6.1,6.1,0,0,1,1.52-.2,3.25,3.25,0,0,1,2.26.68,2.8,2.8,0,0,1,.74,2.18v5.84Zm-2.93-.91a2.63,2.63,0,0,0,1.9-.66,2.45,2.45,0,0,0,.7-1.86v-.78l-1.3.06a4.55,4.55,0,0,0-2.23.48,1.43,1.43,0,0,0-.68,1.32,1.34,1.34,0,0,0,.42,1.07A1.73,1.73,0,0,0,370.27,73.74Z"/><path class="cls-1" d="M376.73,63.77a.88.88,0,0,1,.21-.65.81.81,0,0,1,1.09,0,1,1,0,0,1,0,1.3.79.79,0,0,1-1.09,0A.89.89,0,0,1,376.73,63.77Zm1.4,10.88h-1.3V66.09h1.3Z"/><path class="cls-1" d="M386.71,73.51h-.07a3.05,3.05,0,0,1-2.69,1.3,3.16,3.16,0,0,1-2.61-1.15,5,5,0,0,1-.93-3.26,5.17,5.17,0,0,1,.93-3.29A3.17,3.17,0,0,1,384,65.94a3.12,3.12,0,0,1,2.67,1.26h.11l-.06-.62,0-.6V62.5h1.3V74.65h-1.06Zm-2.59.21A2.36,2.36,0,0,0,386,73a3.64,3.64,0,0,0,.6-2.33V70.4a4.25,4.25,0,0,0-.61-2.6A2.28,2.28,0,0,0,384.1,67a2,2,0,0,0-1.75.89,4.42,4.42,0,0,0-.6,2.5,4.24,4.24,0,0,0,.6,2.48A2,2,0,0,0,384.12,73.72Z"/><path class="cls-1" d="M394.3,74.81a3.9,3.9,0,0,1-3-1.16,4.48,4.48,0,0,1-1.1-3.21,5,5,0,0,1,1-3.29A3.39,3.39,0,0,1,394,65.94a3.22,3.22,0,0,1,2.54,1,4.05,4.05,0,0,1,.94,2.8v.82h-5.9a3.39,3.39,0,0,0,.77,2.29,2.63,2.63,0,0,0,2,.78,6.8,6.8,0,0,0,2.73-.58v1.16a6.74,6.74,0,0,1-1.3.42A7,7,0,0,1,394.3,74.81ZM394,67a2.13,2.13,0,0,0-1.64.67,3.15,3.15,0,0,0-.73,1.86h4.48a2.85,2.85,0,0,0-.55-1.88A1.92,1.92,0,0,0,394,67Z"/><path class="cls-1" d="M410.46,71.62A2.84,2.84,0,0,1,409.37,74a4.76,4.76,0,0,1-3,.84,7.44,7.44,0,0,1-3.13-.52V73a8.55,8.55,0,0,0,1.53.46,7.77,7.77,0,0,0,1.64.18,3.26,3.26,0,0,0,2-.51,1.64,1.64,0,0,0,.68-1.4,1.76,1.76,0,0,0-.24-1,2.25,2.25,0,0,0-.8-.7,10.34,10.34,0,0,0-1.7-.73A5.49,5.49,0,0,1,404.1,68a3,3,0,0,1-.68-2,2.53,2.53,0,0,1,1-2.1,4.14,4.14,0,0,1,2.63-.78,7.84,7.84,0,0,1,3.13.62l-.41,1.16a7,7,0,0,0-2.75-.59,2.65,2.65,0,0,0-1.65.45,1.48,1.48,0,0,0-.6,1.26,2,2,0,0,0,.22,1,2.16,2.16,0,0,0,.74.69,8.39,8.39,0,0,0,1.59.7,6.29,6.29,0,0,1,2.47,1.38A2.7,2.7,0,0,1,410.46,71.62Z"/><path class="cls-1" d="M415.37,73.74a4.77,4.77,0,0,0,.66,0,3.37,3.37,0,0,0,.51-.11v1a2.59,2.59,0,0,1-.62.16,4.16,4.16,0,0,1-.74.07c-1.66,0-2.49-.87-2.49-2.62V67.1h-1.22v-.63l1.22-.53.55-1.83H414v2h2.49v1H414v5a1.73,1.73,0,0,0,.37,1.19A1.29,1.29,0,0,0,415.37,73.74Z"/><path class="cls-1" d="M432.57,74.65h-1.31L429,67c-.11-.34-.23-.77-.37-1.29a9.35,9.35,0,0,1-.21-.93,16.6,16.6,0,0,1-.54,2.26l-2.24,7.6h-1.31l-3-11.42h1.41l1.8,7.06c.25,1,.43,1.88.55,2.68a20.11,20.11,0,0,1,.62-2.79l2.05-7h1.41l2.15,7a21.26,21.26,0,0,1,.63,2.73,23,23,0,0,1,.56-2.7l1.8-7h1.4Z"/><path class="cls-1" d="M100.93,212a3.2,3.2,0,0,1-2.67-1.19,5.34,5.34,0,0,1-.93-3.38v-1.35h-4.5v-1.32h11.43v3Q104.26,212,100.93,212Zm-2.46-5.92v1.2A4.41,4.41,0,0,0,99,209.8a2.09,2.09,0,0,0,1.83.79,2,2,0,0,0,1.68-.74,3.85,3.85,0,0,0,.56-2.31v-1.49Z"/><path class="cls-1" d="M97.12,221.55a4.76,4.76,0,0,1-3.27-1.05,3.72,3.72,0,0,1-1.17-2.91,3.84,3.84,0,0,1,.54-2,3.51,3.51,0,0,1,1.54-1.38,5.46,5.46,0,0,1,2.36-.48,4.73,4.73,0,0,1,3.26,1,3.71,3.71,0,0,1,1.17,2.91,3.65,3.65,0,0,1-1.19,2.86A4.75,4.75,0,0,1,97.12,221.55Zm0-6.52a4.07,4.07,0,0,0-2.5.66,2.6,2.6,0,0,0,0,3.86,4,4,0,0,0,2.5.66,4,4,0,0,0,2.48-.66,2.65,2.65,0,0,0,0-3.87A4.06,4.06,0,0,0,97.12,215Z"/><path class="cls-1" d="M101.55,227.73a5.34,5.34,0,0,1-.09,1l-1.2-.18a5,5,0,0,0,.11-.94,2.29,2.29,0,0,0-.84-1.78,3.08,3.08,0,0,0-2.1-.74h-4.6v-1.29h8.57v1.07l-1.59.15v.06a3.73,3.73,0,0,1,1.29,1.15A2.6,2.6,0,0,1,101.55,227.73Z"/><path class="cls-1" d="M93.75,233.12a3.71,3.71,0,0,0,0,.67c0,.21.07.38.1.51h-1a2.53,2.53,0,0,1-.17-.62,5.23,5.23,0,0,1-.06-.74q0-2.49,2.61-2.49h5.1v-1.22H101l.54,1.22,1.83.55v.75h-2v2.48h-1v-2.48h-5a1.71,1.71,0,0,0-1.19.37A1.28,1.28,0,0,0,93.75,233.12Z"/><path class="cls-1" d="M92.83,237.3V236H105v1.29Z"/><path class="cls-1" d="M92.83,245.32l1.22-.26V245A3.65,3.65,0,0,1,93,243.72a3.87,3.87,0,0,1-.28-1.59,2.87,2.87,0,0,1,.65-2,2.38,2.38,0,0,1,1.87-.73c1.73,0,2.64,1.39,2.72,4.15L98,245h.53a2.17,2.17,0,0,0,1.49-.44,1.79,1.79,0,0,0,.48-1.39,5.63,5.63,0,0,0-.66-2.42l1-.4a6.27,6.27,0,0,1,.54,1.39,6,6,0,0,1,.2,1.51,3.28,3.28,0,0,1-.68,2.27,2.86,2.86,0,0,1-2.18.74H92.83Zm.92-2.93a2.63,2.63,0,0,0,.66,1.9,2.45,2.45,0,0,0,1.86.69H97L97,243.69a4.79,4.79,0,0,0-.48-2.23,1.44,1.44,0,0,0-1.32-.69,1.31,1.31,0,0,0-1.07.43A1.73,1.73,0,0,0,93.75,242.39Z"/><path class="cls-1" d="M92.83,254.81h5.54a2.3,2.3,0,0,0,1.57-.47,2,2,0,0,0,.51-1.5,2.46,2.46,0,0,0-.73-2,3.68,3.68,0,0,0-2.39-.62h-4.5V249h8.57V250l-1.18.21v.06a2.7,2.7,0,0,1,1,1.12,3.64,3.64,0,0,1,.34,1.6,3.29,3.29,0,0,1-.74,2.33,3.2,3.2,0,0,1-2.39.78H92.83Z"/><path class="cls-1" d="M94,264.6v-.07a3,3,0,0,1-1.3-2.69,3.16,3.16,0,0,1,1.15-2.61,5,5,0,0,1,3.26-.93,5.17,5.17,0,0,1,3.29.93,3.49,3.49,0,0,1-.09,5.29v.1l.61-.06.61,0H105v1.3H92.83v-1.06ZM93.76,262a2.32,2.32,0,0,0,.73,1.92,3.64,3.64,0,0,0,2.33.6h.27a4.33,4.33,0,0,0,2.6-.6,2.31,2.31,0,0,0,.78-1.94,2,2,0,0,0-.89-1.74,4.36,4.36,0,0,0-2.5-.61,4.24,4.24,0,0,0-2.48.6A2,2,0,0,0,93.76,262Z"/><path class="cls-1" d="M95.87,279.37a2.8,2.8,0,0,1-2.35-1.09,4.76,4.76,0,0,1-.84-3,7.42,7.42,0,0,1,.52-3.12h1.28a8.56,8.56,0,0,0-.47,1.53,8.38,8.38,0,0,0-.17,1.64,3.3,3.3,0,0,0,.51,2,1.63,1.63,0,0,0,1.4.67,1.79,1.79,0,0,0,1-.24,2.21,2.21,0,0,0,.7-.79,11.78,11.78,0,0,0,.73-1.7A5.36,5.36,0,0,1,99.5,273a3,3,0,0,1,2-.68,2.53,2.53,0,0,1,2.1,1,4.11,4.11,0,0,1,.78,2.62,7.73,7.73,0,0,1-.63,3.14l-1.15-.42a7.17,7.17,0,0,0,.59-2.75,2.69,2.69,0,0,0-.45-1.65,1.5,1.5,0,0,0-1.26-.59,1.88,1.88,0,0,0-1,.22,2,2,0,0,0-.7.74,9.16,9.16,0,0,0-.7,1.59,6.24,6.24,0,0,1-1.37,2.47A2.72,2.72,0,0,1,95.87,279.37Z"/><path class="cls-1" d="M93.75,284.28a3.71,3.71,0,0,0,0,.67,4.83,4.83,0,0,0,.1.5h-1a2.4,2.4,0,0,1-.17-.62,5.12,5.12,0,0,1-.06-.74c0-1.65.87-2.48,2.61-2.48h5.1v-1.23H101l.54,1.23,1.83.55v.75h-2v2.48h-1v-2.48h-5a1.76,1.76,0,0,0-1.19.36A1.3,1.3,0,0,0,93.75,284.28Z"/><path class="cls-1" d="M561.85,204.73V208a6.12,6.12,0,0,1-.68,3.29,2.39,2.39,0,0,1-2.15,1,2.45,2.45,0,0,1-1.67-.57,2.74,2.74,0,0,1-.86-1.65h-.08c-.29,1.73-1.21,2.6-2.73,2.6a2.94,2.94,0,0,1-2.39-1,4.35,4.35,0,0,1-.86-2.89v-4Zm-6,1.32h-4.27v2.39a3.38,3.38,0,0,0,.54,2.08,2,2,0,0,0,1.67.7,1.76,1.76,0,0,0,1.56-.72,3.74,3.74,0,0,0,.5-2.17Zm1.13,0v2.19a3.64,3.64,0,0,0,.44,2,1.7,1.7,0,0,0,1.49.61,1.52,1.52,0,0,0,1.39-.69,4.29,4.29,0,0,0,.42-2.18v-2Z"/><path class="cls-1" d="M559.15,218.8a4.61,4.61,0,0,1-.1,1l-1.2-.18a4.39,4.39,0,0,0,.12-.94,2.29,2.29,0,0,0-.85-1.78,3.08,3.08,0,0,0-2.1-.74h-4.59V214.9H559V216l-1.59.15v.06a3.73,3.73,0,0,1,1.29,1.15A2.53,2.53,0,0,1,559.15,218.8Z"/><path class="cls-1" d="M550.43,226.69l1.22-.25v-.07a3.53,3.53,0,0,1-1.09-1.27,3.93,3.93,0,0,1-.29-1.59,2.86,2.86,0,0,1,.66-2,2.4,2.4,0,0,1,1.86-.72q2.6,0,2.72,4.15l0,1.45h.53a2.17,2.17,0,0,0,1.49-.43,1.79,1.79,0,0,0,.48-1.39,5.63,5.63,0,0,0-.66-2.42l1-.4a6.38,6.38,0,0,1,.54,1.39,6,6,0,0,1,.19,1.51,3.28,3.28,0,0,1-.68,2.27,2.84,2.84,0,0,1-2.18.74h-5.84Zm.91-2.92a2.61,2.61,0,0,0,.67,1.9,2.45,2.45,0,0,0,1.86.69h.77l-.06-1.3a4.58,4.58,0,0,0-.48-2.23,1.45,1.45,0,0,0-1.32-.68,1.34,1.34,0,0,0-1.07.42A1.76,1.76,0,0,0,551.34,223.77Z"/><path class="cls-1" d="M550.43,236.19H556a2.22,2.22,0,0,0,1.56-.48,2,2,0,0,0,.51-1.49,2.47,2.47,0,0,0-.72-2,3.67,3.67,0,0,0-2.4-.63h-4.49v-1.29H559v1l-1.17.21v.07a2.59,2.59,0,0,1,1,1.11,3.68,3.68,0,0,1,.35,1.6,3.23,3.23,0,0,1-.75,2.33,3.18,3.18,0,0,1-2.39.78h-5.58Z"/><path class="cls-1" d="M551.34,242.91a4.91,4.91,0,0,0,0,.67c0,.21.07.38.11.51h-1a2.23,2.23,0,0,1-.17-.63,4.06,4.06,0,0,1-.07-.73c0-1.66.87-2.49,2.62-2.49H558V239h.63l.54,1.22,1.82.55v.75h-2V244h-1v-2.48h-5a1.69,1.69,0,0,0-1.18.37A1.26,1.26,0,0,0,551.34,242.91Z"/><path class="cls-1" d="M553.47,256.59a2.78,2.78,0,0,1-2.35-1.09,4.7,4.7,0,0,1-.85-3,7.55,7.55,0,0,1,.52-3.12h1.29a7.41,7.41,0,0,0-.47,1.53,7.68,7.68,0,0,0-.17,1.64,3.3,3.3,0,0,0,.5,2,1.65,1.65,0,0,0,1.4.67,1.76,1.76,0,0,0,1-.24,2.08,2.08,0,0,0,.7-.8,10.16,10.16,0,0,0,.73-1.69,5.36,5.36,0,0,1,1.35-2.28,3,3,0,0,1,2-.69,2.52,2.52,0,0,1,2.1,1,4.11,4.11,0,0,1,.78,2.62,7.81,7.81,0,0,1-.62,3.13l-1.16-.41a7,7,0,0,0,.6-2.75,2.69,2.69,0,0,0-.46-1.65,1.5,1.5,0,0,0-1.25-.59,1.9,1.9,0,0,0-1,.22,2,2,0,0,0-.69.73,9.09,9.09,0,0,0-.7,1.59,6.34,6.34,0,0,1-1.38,2.48A2.69,2.69,0,0,1,553.47,256.59Z"/><path class="cls-1" d="M551.34,261.5a4.65,4.65,0,0,0,0,.66,4.22,4.22,0,0,0,.11.51h-1a2.15,2.15,0,0,1-.17-.62,4.08,4.08,0,0,1-.07-.74c0-1.65.87-2.48,2.62-2.48H558V257.6h.63l.54,1.23,1.82.54v.75h-2v2.49h-1v-2.49h-5a1.74,1.74,0,0,0-1.18.37A1.28,1.28,0,0,0,551.34,261.5Z"/><path class="cls-2" d="M154.75,333.9h-1l-2.61-3.47-.74.67v2.8h-.83v-7.14h.83v3.54l3.23-3.54h1l-2.88,3.1Z"/><path class="cls-2" d="M155.54,327.09a.52.52,0,0,1,.14-.4.47.47,0,0,1,.34-.13.48.48,0,0,1,.34.13.54.54,0,0,1,.14.4.55.55,0,0,1-.14.41.49.49,0,0,1-.34.14.48.48,0,0,1-.34-.14A.55.55,0,0,1,155.54,327.09Zm.88,6.81h-.81v-5.36h.81Z"/><path class="cls-2" d="M161.8,333.9v-3.47a1.42,1.42,0,0,0-.29-1,1.21,1.21,0,0,0-.94-.33,1.55,1.55,0,0,0-1.23.46,2.29,2.29,0,0,0-.39,1.5v2.81h-.81v-5.36h.66l.13.74h0a1.69,1.69,0,0,1,.7-.62,2.33,2.33,0,0,1,1-.21,2.06,2.06,0,0,1,1.46.46,2,2,0,0,1,.48,1.49v3.5Z"/><path class="cls-2" d="M168.66,328.54v.52l-1,.11a1.89,1.89,0,0,1,.24.45,1.71,1.71,0,0,1,.11.62,1.58,1.58,0,0,1-.54,1.26A2.18,2.18,0,0,1,166,332a3.14,3.14,0,0,1-.45,0,.79.79,0,0,0-.52.69.35.35,0,0,0,.18.32,1.31,1.31,0,0,0,.62.11h.95a2.13,2.13,0,0,1,1.33.36,1.26,1.26,0,0,1,.47,1.07,1.52,1.52,0,0,1-.71,1.35,3.84,3.84,0,0,1-2.08.47,2.85,2.85,0,0,1-1.62-.39,1.27,1.27,0,0,1-.57-1.11,1.23,1.23,0,0,1,.31-.84,1.55,1.55,0,0,1,.88-.48.87.87,0,0,1-.34-.29.72.72,0,0,1-.14-.46.9.9,0,0,1,.15-.51,1.54,1.54,0,0,1,.5-.42,1.48,1.48,0,0,1-.68-.59,1.71,1.71,0,0,1-.26-.93,1.75,1.75,0,0,1,.53-1.36,2.18,2.18,0,0,1,1.49-.47,3,3,0,0,1,.76.09Zm-4.27,6.25a.72.72,0,0,0,.37.66,2,2,0,0,0,1.05.23,2.86,2.86,0,0,0,1.51-.31.93.93,0,0,0,.49-.83.66.66,0,0,0-.27-.6,2.12,2.12,0,0,0-1-.17h-1a1.25,1.25,0,0,0-.86.27A.92.92,0,0,0,164.39,334.79Zm.44-4.53a1.1,1.1,0,0,0,.32.85,1.26,1.26,0,0,0,.88.29,1,1,0,0,0,1.19-1.16A1.06,1.06,0,0,0,166,329a1.2,1.2,0,0,0-.88.3A1.23,1.23,0,0,0,164.83,330.26Z"/><path class="cls-2" d="M176.51,332a1.77,1.77,0,0,1-.69,1.47A3,3,0,0,1,174,334a4.83,4.83,0,0,1-2-.32v-.8a5.65,5.65,0,0,0,1,.29,5.23,5.23,0,0,0,1,.11,2.07,2.07,0,0,0,1.25-.32,1,1,0,0,0,.42-.88,1.09,1.09,0,0,0-.15-.6,1.37,1.37,0,0,0-.5-.44,7.59,7.59,0,0,0-1.06-.45,3.4,3.4,0,0,1-1.43-.85,1.87,1.87,0,0,1-.42-1.27,1.59,1.59,0,0,1,.62-1.32,2.6,2.6,0,0,1,1.64-.49,5,5,0,0,1,1.95.39l-.25.73a4.41,4.41,0,0,0-1.72-.37,1.64,1.64,0,0,0-1,.28.93.93,0,0,0-.37.79,1.19,1.19,0,0,0,.13.6,1.3,1.3,0,0,0,.46.44,6,6,0,0,0,1,.44,3.88,3.88,0,0,1,1.54.85A1.73,1.73,0,0,1,176.51,332Z"/><path class="cls-2" d="M179.57,333.32l.42,0,.31-.06v.62a1.55,1.55,0,0,1-.38.1,2.71,2.71,0,0,1-.47,0c-1,0-1.55-.54-1.55-1.63v-3.19h-.76v-.39l.76-.33.34-1.15h.47v1.24h1.56v.63h-1.56v3.15a1.12,1.12,0,0,0,.23.75A.79.79,0,0,0,179.57,333.32Z"/><path class="cls-2" d="M190.32,333.9h-.82l-1.44-4.78c-.07-.22-.14-.48-.23-.81s-.12-.51-.13-.58a10.19,10.19,0,0,1-.34,1.41L186,333.9h-.82l-1.9-7.14h.88l1.13,4.41a14.72,14.72,0,0,1,.34,1.68,12.68,12.68,0,0,1,.39-1.75l1.28-4.34h.88l1.34,4.38a12.74,12.74,0,0,1,.4,1.71,14.25,14.25,0,0,1,.35-1.69l1.12-4.4h.88Z"/><path class="cls-2" d="M195.49,334a2.45,2.45,0,0,1-1.87-.72,2.79,2.79,0,0,1-.69-2,3.07,3.07,0,0,1,.64-2.05,2.09,2.09,0,0,1,1.71-.76,2,2,0,0,1,1.59.66,2.53,2.53,0,0,1,.59,1.74v.52h-3.69a2.15,2.15,0,0,0,.48,1.43,1.66,1.66,0,0,0,1.27.49,4.32,4.32,0,0,0,1.71-.37v.73a4.43,4.43,0,0,1-.81.26A4.24,4.24,0,0,1,195.49,334Zm-.22-4.87a1.37,1.37,0,0,0-1,.42,2,2,0,0,0-.45,1.17h2.8a1.84,1.84,0,0,0-.34-1.18A1.22,1.22,0,0,0,195.27,329.12Z"/><path class="cls-2" d="M202.29,332.44a1.33,1.33,0,0,1-.56,1.15,2.61,2.61,0,0,1-1.56.4,3.46,3.46,0,0,1-1.66-.33v-.76a3.45,3.45,0,0,0,.83.31,3.2,3.2,0,0,0,.85.11,1.89,1.89,0,0,0,1-.2.66.66,0,0,0,.34-.62.68.68,0,0,0-.27-.53,4.36,4.36,0,0,0-1.06-.53,5.26,5.26,0,0,1-1.06-.48,1.5,1.5,0,0,1-.47-.47,1.28,1.28,0,0,1-.15-.63,1.18,1.18,0,0,1,.53-1,2.41,2.41,0,0,1,1.46-.38,4.16,4.16,0,0,1,1.69.35l-.29.66a3.92,3.92,0,0,0-1.46-.34,1.7,1.7,0,0,0-.87.19.56.56,0,0,0-.29.49.62.62,0,0,0,.11.37,1.06,1.06,0,0,0,.35.29,8.83,8.83,0,0,0,.94.39,3.59,3.59,0,0,1,1.29.7A1.26,1.26,0,0,1,202.29,332.44Z"/><path class="cls-2" d="M205.34,333.32a2.73,2.73,0,0,0,.41,0l.32-.06v.62a1.8,1.8,0,0,1-.39.1,2.6,2.6,0,0,1-.46,0c-1,0-1.55-.54-1.55-1.63v-3.19h-.77v-.39l.77-.33.34-1.15h.47v1.24H206v.63h-1.55v3.15a1.12,1.12,0,0,0,.23.75A.79.79,0,0,0,205.34,333.32Z"/><path class="cls-2" d="M214.35,333.9l-.89-2.28H210.6l-.88,2.28h-.84l2.82-7.17h.7l2.81,7.17Zm-1.15-3-.83-2.21a10.59,10.59,0,0,1-.33-1,10.32,10.32,0,0,1-.31,1l-.84,2.21Z"/><path class="cls-2" d="M217.79,333.32a2.77,2.77,0,0,0,.42,0l.32-.06v.62a1.8,1.8,0,0,1-.39.1,2.68,2.68,0,0,1-.46,0c-1,0-1.56-.54-1.56-1.63v-3.19h-.76v-.39l.76-.33.35-1.15h.47v1.24h1.55v.63h-1.55v3.15a1.12,1.12,0,0,0,.22.75A.82.82,0,0,0,217.79,333.32Z"/><path class="cls-2" d="M154.12,339.84a2,2,0,0,1-.74,1.66,3.33,3.33,0,0,1-2.11.59h-.84v2.81h-.83v-7.14h1.85C153.23,337.76,154.12,338.45,154.12,339.84Zm-3.69,1.53h.74a2.77,2.77,0,0,0,1.6-.35,1.31,1.31,0,0,0,.49-1.14,1.23,1.23,0,0,0-.46-1.06,2.44,2.44,0,0,0-1.45-.35h-.92Z"/><path class="cls-2" d="M160.11,342.21a3,3,0,0,1-.66,2.05,2.29,2.29,0,0,1-1.82.73,2.43,2.43,0,0,1-1.27-.33,2.26,2.26,0,0,1-.86-1,3.4,3.4,0,0,1-.3-1.48,3,3,0,0,1,.65-2,2.31,2.31,0,0,1,1.82-.73,2.27,2.27,0,0,1,1.78.74A3,3,0,0,1,160.11,342.21Zm-4.07,0a2.51,2.51,0,0,0,.41,1.57,1.4,1.4,0,0,0,1.2.53,1.42,1.42,0,0,0,1.21-.53,2.51,2.51,0,0,0,.41-1.57,2.49,2.49,0,0,0-.41-1.55,1.45,1.45,0,0,0-1.22-.53,1.43,1.43,0,0,0-1.2.53A2.52,2.52,0,0,0,156,342.21Z"/><path class="cls-2" d="M164,339.45a4.16,4.16,0,0,1,.64.05l-.12.76a2.67,2.67,0,0,0-.58-.08,1.41,1.41,0,0,0-1.11.53,1.91,1.91,0,0,0-.46,1.31v2.88h-.82v-5.36h.67l.1,1h0a2.26,2.26,0,0,1,.71-.81A1.62,1.62,0,0,1,164,339.45Z"/><path class="cls-2" d="M167.35,344.32a2.73,2.73,0,0,0,.41,0l.32-.06v.62a1.8,1.8,0,0,1-.39.1,2.68,2.68,0,0,1-.46,0c-1,0-1.55-.54-1.55-1.63v-3.19h-.77v-.39l.77-.33.34-1.15h.47v1.24H168v.63h-1.55v3.15a1.07,1.07,0,0,0,.23.75A.79.79,0,0,0,167.35,344.32Z"/><path class="cls-2" d="M170,344.9h-.81v-7.6H170Z"/><path class="cls-2" d="M175,344.9l-.16-.77h0a2.33,2.33,0,0,1-.8.69,2.62,2.62,0,0,1-1,.17,1.75,1.75,0,0,1-1.25-.41,1.48,1.48,0,0,1-.45-1.16c0-1.08.86-1.65,2.59-1.7l.91,0v-.33a1.36,1.36,0,0,0-.27-.93,1.12,1.12,0,0,0-.87-.31,3.43,3.43,0,0,0-1.51.42l-.25-.63a3.91,3.91,0,0,1,1.81-.45,2.06,2.06,0,0,1,1.42.42,1.8,1.8,0,0,1,.46,1.36v3.66Zm-1.83-.58a1.64,1.64,0,0,0,1.19-.41,1.56,1.56,0,0,0,.43-1.16v-.49l-.81,0a2.91,2.91,0,0,0-1.4.3.91.91,0,0,0-.42.83.8.8,0,0,0,.26.66A1.09,1.09,0,0,0,173.14,344.32Z"/><path class="cls-2" d="M180.9,344.9v-3.47a1.37,1.37,0,0,0-.3-1,1.2,1.2,0,0,0-.93-.33,1.55,1.55,0,0,0-1.23.46,2.29,2.29,0,0,0-.39,1.5v2.81h-.81v-5.36h.66l.13.74h0a1.63,1.63,0,0,1,.7-.62,2.33,2.33,0,0,1,1-.21,2,2,0,0,1,1.45.46,2,2,0,0,1,.49,1.49v3.5Z"/><path class="cls-2" d="M187,344.18H187a1.9,1.9,0,0,1-1.68.81,2,2,0,0,1-1.63-.71,3.17,3.17,0,0,1-.58-2,3.21,3.21,0,0,1,.58-2.05,2,2,0,0,1,1.63-.73,1.93,1.93,0,0,1,1.67.79H187l0-.39,0-.37V337.3h.81v7.6h-.65Zm-1.62.13a1.48,1.48,0,0,0,1.2-.45,2.25,2.25,0,0,0,.37-1.45v-.18a2.71,2.71,0,0,0-.37-1.62,1.47,1.47,0,0,0-1.21-.49,1.23,1.23,0,0,0-1.09.56,2.69,2.69,0,0,0-.38,1.56,2.65,2.65,0,0,0,.37,1.55A1.27,1.27,0,0,0,185.4,344.31Z"/><path class="cls-2" d="M196.25,343a1.79,1.79,0,0,1-.68,1.47,3,3,0,0,1-1.86.52,4.78,4.78,0,0,1-2-.32v-.8a5.15,5.15,0,0,0,1,.29,5.05,5.05,0,0,0,1,.11A2.07,2.07,0,0,0,195,344a1,1,0,0,0,.42-.88,1.09,1.09,0,0,0-.15-.6,1.3,1.3,0,0,0-.5-.44,7.09,7.09,0,0,0-1.06-.45,3.35,3.35,0,0,1-1.42-.85,1.83,1.83,0,0,1-.43-1.27,1.61,1.61,0,0,1,.62-1.32,2.62,2.62,0,0,1,1.64-.49,5,5,0,0,1,2,.39l-.26.73a4.37,4.37,0,0,0-1.72-.37,1.66,1.66,0,0,0-1,.28,1,1,0,0,0-.37.79,1.18,1.18,0,0,0,.14.6,1.22,1.22,0,0,0,.46.44,6.19,6.19,0,0,0,1,.44,3.93,3.93,0,0,1,1.55.85A1.72,1.72,0,0,1,196.25,343Z"/><path class="cls-2" d="M199.32,344.32a2.73,2.73,0,0,0,.41,0l.32-.06v.62a1.8,1.8,0,0,1-.39.1,2.6,2.6,0,0,1-.46,0c-1,0-1.55-.54-1.55-1.63v-3.19h-.77v-.39l.77-.33.34-1.15h.47v1.24H200v.63h-1.55v3.15a1.12,1.12,0,0,0,.23.75A.79.79,0,0,0,199.32,344.32Z"/><path class="cls-2" d="M190.67,367.33v-7.14h.83v6.39h3.15v.75Z"/><path class="cls-2" d="M198,367.43a2.45,2.45,0,0,1-1.87-.72,2.82,2.82,0,0,1-.69-2,3.1,3.1,0,0,1,.64-2.06,2.12,2.12,0,0,1,1.71-.76,2,2,0,0,1,1.59.66,2.56,2.56,0,0,1,.59,1.75v.51h-3.69a2.13,2.13,0,0,0,.48,1.43,1.62,1.62,0,0,0,1.27.49,4.38,4.38,0,0,0,1.71-.36v.72a4.35,4.35,0,0,1-.82.27A4.77,4.77,0,0,1,198,367.43Zm-.22-4.87a1.33,1.33,0,0,0-1,.42,2,2,0,0,0-.45,1.16h2.8a1.81,1.81,0,0,0-.34-1.17A1.22,1.22,0,0,0,197.78,362.56Z"/><path class="cls-2" d="M203.61,367.43a2.45,2.45,0,0,1-1.87-.72,2.82,2.82,0,0,1-.69-2,3.1,3.1,0,0,1,.64-2.06,2.12,2.12,0,0,1,1.71-.76,2,2,0,0,1,1.59.66,2.56,2.56,0,0,1,.59,1.75v.51h-3.69a2.13,2.13,0,0,0,.48,1.43,1.62,1.62,0,0,0,1.27.49,4.3,4.3,0,0,0,1.71-.36v.72a4.52,4.52,0,0,1-.81.27A5,5,0,0,1,203.61,367.43Zm-.22-4.87a1.33,1.33,0,0,0-1,.42,2,2,0,0,0-.45,1.16h2.8a1.81,1.81,0,0,0-.34-1.17A1.22,1.22,0,0,0,203.39,362.56Z"/><path class="cls-2" d="M213.76,360.19h.89l-2.57,7.14h-.82l-2.56-7.14h.88l1.64,4.62a12.69,12.69,0,0,1,.45,1.55,11.76,11.76,0,0,1,.46-1.58Z"/><path class="cls-2" d="M218.8,367.33l-.16-.76h0a2.31,2.31,0,0,1-.8.68,2.37,2.37,0,0,1-1,.18,1.81,1.81,0,0,1-1.25-.41,1.49,1.49,0,0,1-.45-1.17c0-1.08.86-1.65,2.59-1.7l.91,0v-.33a1.36,1.36,0,0,0-.27-.93,1.12,1.12,0,0,0-.87-.3A3.58,3.58,0,0,0,216,363l-.25-.62a3.84,3.84,0,0,1,1.81-.46,2,2,0,0,1,1.42.43,1.75,1.75,0,0,1,.46,1.36v3.65Zm-1.83-.57a1.65,1.65,0,0,0,1.19-.42,1.51,1.51,0,0,0,.43-1.16v-.48l-.81,0a3.12,3.12,0,0,0-1.39.3.91.91,0,0,0-.43.83.86.86,0,0,0,.26.67A1.14,1.14,0,0,0,217,366.76Z"/><path class="cls-2" d="M221.88,367.33h-.81v-7.6h.81Z"/><path class="cls-2" d="M224.41,367.33h-.81v-7.6h.81Z"/><path class="cls-2" d="M228.39,367.43a2.46,2.46,0,0,1-1.87-.72,2.82,2.82,0,0,1-.69-2,3.1,3.1,0,0,1,.64-2.06,2.12,2.12,0,0,1,1.71-.76,2,2,0,0,1,1.59.66,2.56,2.56,0,0,1,.59,1.75v.51h-3.69a2.13,2.13,0,0,0,.48,1.43,1.62,1.62,0,0,0,1.27.49,4.3,4.3,0,0,0,1.71-.36v.72a4.52,4.52,0,0,1-.81.27A5,5,0,0,1,228.39,367.43Zm-.22-4.87a1.33,1.33,0,0,0-1,.42,2,2,0,0,0-.45,1.16h2.8a1.76,1.76,0,0,0-.34-1.17A1.22,1.22,0,0,0,228.17,362.56Z"/><path class="cls-2" d="M230.89,362h.87l1.17,3a11.08,11.08,0,0,1,.48,1.51h0c0-.17.13-.45.26-.85s.58-1.64,1.33-3.71h.87l-2.3,6.09a3,3,0,0,1-.8,1.28,1.65,1.65,0,0,1-1.12.38,3,3,0,0,1-.73-.08V369a2.77,2.77,0,0,0,.6.06,1.23,1.23,0,0,0,1.19-.94l.3-.76Z"/><path class="cls-2" d="M336.82,328.1H336l-1.44-4.78c-.07-.22-.15-.48-.23-.8a4.87,4.87,0,0,1-.13-.59,12.48,12.48,0,0,1-.34,1.42l-1.4,4.75h-.82l-1.9-7.14h.88l1.13,4.41c.15.62.27,1.17.34,1.68a12.68,12.68,0,0,1,.39-1.75l1.28-4.34h.88l1.34,4.38a12.74,12.74,0,0,1,.4,1.71,12.48,12.48,0,0,1,.35-1.69l1.12-4.4h.88Z"/><path class="cls-2" d="M339.66,321.29a.52.52,0,0,1,.13-.4.48.48,0,0,1,.35-.13.44.44,0,0,1,.33.13.5.5,0,0,1,.14.4.51.51,0,0,1-.14.41.45.45,0,0,1-.33.14.48.48,0,0,1-.35-.14A.55.55,0,0,1,339.66,321.29Zm.88,6.81h-.81v-5.35h.81Z"/><path class="cls-2" d="M343.07,328.1h-.82v-7.6h.82Z"/><path class="cls-2" d="M347.27,322.66a2,2,0,0,1,1.64.72,3.82,3.82,0,0,1,0,4.08,2,2,0,0,1-1.64.73,2.3,2.3,0,0,1-.95-.19,1.89,1.89,0,0,1-.73-.59h0l-.17.69h-.59v-7.6h.81v1.84c0,.42,0,.79,0,1.12h0A1.92,1.92,0,0,1,347.27,322.66Zm-.11.68a1.41,1.41,0,0,0-1.2.47,2.72,2.72,0,0,0-.37,1.61A2.66,2.66,0,0,0,346,327a1.44,1.44,0,0,0,1.21.49,1.26,1.26,0,0,0,1.11-.55,2.81,2.81,0,0,0,.37-1.56,2.72,2.72,0,0,0-.37-1.56A1.29,1.29,0,0,0,347.16,323.34Z"/><path class="cls-2" d="M351.67,322.75v3.47a1.37,1.37,0,0,0,.3,1,1.2,1.2,0,0,0,.93.33,1.55,1.55,0,0,0,1.23-.46,2.32,2.32,0,0,0,.39-1.5v-2.81h.81v5.35h-.67l-.12-.72h0a1.68,1.68,0,0,1-.69.6,2.31,2.31,0,0,1-1,.21,2,2,0,0,1-1.46-.46,2,2,0,0,1-.49-1.48v-3.5Z"/><path class="cls-2" d="M359.49,322.65a3.1,3.1,0,0,1,.64.06l-.11.75a2.75,2.75,0,0,0-.59-.08,1.44,1.44,0,0,0-1.11.53,1.91,1.91,0,0,0-.46,1.32v2.87h-.81v-5.35h.67l.09,1h0a2.38,2.38,0,0,1,.72-.81A1.61,1.61,0,0,1,359.49,322.65Z"/><path class="cls-2" d="M333.75,339.1l-2.42-6.33h0c0,.5.07,1.1.07,1.79v4.54h-.77V332h1.25l2.26,5.89h0l2.28-5.89h1.24v7.14h-.83v-4.6c0-.53,0-1.1.07-1.72h0l-2.44,6.32Z"/><path class="cls-2" d="M341.76,339.19a2.49,2.49,0,0,1-1.88-.72,2.83,2.83,0,0,1-.68-2,3.07,3.07,0,0,1,.64-2,2.09,2.09,0,0,1,1.71-.76,2,2,0,0,1,1.59.66,2.52,2.52,0,0,1,.58,1.74v.52H340a2.1,2.1,0,0,0,.47,1.43,1.69,1.69,0,0,0,1.28.49,4.22,4.22,0,0,0,1.71-.37v.73a4.28,4.28,0,0,1-.82.26A4.09,4.09,0,0,1,341.76,339.19Zm-.22-4.86a1.32,1.32,0,0,0-1,.42,1.86,1.86,0,0,0-.45,1.16h2.8a1.8,1.8,0,0,0-.35-1.18A1.18,1.18,0,0,0,341.54,334.33Z"/><path class="cls-2" d="M346.4,336.36l-1.86-2.61h.92l1.41,2.05,1.41-2.05h.91l-1.86,2.61,2,2.74h-.92l-1.5-2.17-1.51,2.17h-.92Z"/><path class="cls-2" d="M350.28,332.29a.52.52,0,0,1,.13-.4.49.49,0,0,1,.35-.13.44.44,0,0,1,.33.13.5.5,0,0,1,.14.4.51.51,0,0,1-.14.41.45.45,0,0,1-.33.14.5.5,0,0,1-.35-.14A.55.55,0,0,1,350.28,332.29Zm.88,6.81h-.81v-5.35h.81Z"/><path class="cls-2" d="M355,339.19a2.29,2.29,0,0,1-1.8-.71,3,3,0,0,1-.63-2,3,3,0,0,1,.64-2.08,2.35,2.35,0,0,1,1.85-.73,3.42,3.42,0,0,1,.77.08,2.32,2.32,0,0,1,.6.2l-.24.68a3.39,3.39,0,0,0-.59-.17,2.44,2.44,0,0,0-.56-.07c-1.09,0-1.63.69-1.63,2.08a2.51,2.51,0,0,0,.39,1.51,1.4,1.4,0,0,0,1.18.53,3.68,3.68,0,0,0,1.38-.29v.72A3,3,0,0,1,355,339.19Z"/><path class="cls-2" d="M360.93,339.1l-.16-.77h0a2.33,2.33,0,0,1-.8.69,2.64,2.64,0,0,1-1,.17,1.74,1.74,0,0,1-1.24-.41,1.48,1.48,0,0,1-.45-1.16c0-1.08.86-1.65,2.59-1.7l.91,0v-.33a1.31,1.31,0,0,0-.28-.93,1.08,1.08,0,0,0-.86-.3,3.47,3.47,0,0,0-1.52.41l-.24-.62a3.43,3.43,0,0,1,.86-.34,3.87,3.87,0,0,1,.95-.12,2.06,2.06,0,0,1,1.42.42,1.81,1.81,0,0,1,.46,1.36v3.66Zm-1.83-.57a1.65,1.65,0,0,0,1.19-.42,1.56,1.56,0,0,0,.43-1.16v-.49l-.81,0a2.91,2.91,0,0,0-1.4.3.92.92,0,0,0-.43.83.85.85,0,0,0,.27.67A1.14,1.14,0,0,0,359.1,338.53Z"/><path class="cls-2" d="M366.86,339.1v-3.47a1.37,1.37,0,0,0-.3-1,1.19,1.19,0,0,0-.93-.32,1.54,1.54,0,0,0-1.23.45,2.29,2.29,0,0,0-.39,1.5v2.81h-.81v-5.35h.66l.13.73h0a1.63,1.63,0,0,1,.7-.62,2.33,2.33,0,0,1,1-.21,2,2,0,0,1,1.45.46,2,2,0,0,1,.49,1.5v3.49Z"/><path class="cls-2" d="M372.63,339.1l-.17-.77h0a2.33,2.33,0,0,1-.8.69,2.64,2.64,0,0,1-1,.17,1.74,1.74,0,0,1-1.24-.41,1.46,1.46,0,0,1-.46-1.16c0-1.08.87-1.65,2.6-1.7l.91,0v-.33a1.31,1.31,0,0,0-.28-.93,1.09,1.09,0,0,0-.86-.3,3.47,3.47,0,0,0-1.52.41l-.24-.62a3.43,3.43,0,0,1,.86-.34,3.87,3.87,0,0,1,1-.12,2.08,2.08,0,0,1,1.42.42,1.81,1.81,0,0,1,.46,1.36v3.66Zm-1.84-.57a1.61,1.61,0,0,0,1.19-.42,1.53,1.53,0,0,0,.44-1.16v-.49l-.81,0a2.91,2.91,0,0,0-1.4.3.92.92,0,0,0-.43.83.85.85,0,0,0,.27.67A1.13,1.13,0,0,0,370.79,338.53Z"/><path class="cls-2" d="M229.15,425.75h-1l-2.6-3.46-.75.67v2.79H224v-7.13h.83v3.54l3.24-3.54h1l-2.87,3.1Z"/><path class="cls-2" d="M229.94,419a.53.53,0,0,1,.14-.41.49.49,0,0,1,.34-.12.44.44,0,0,1,.33.13.51.51,0,0,1,.15.4.53.53,0,0,1-.15.41.45.45,0,0,1-.33.14.46.46,0,0,1-.34-.14A.53.53,0,0,1,229.94,419Zm.88,6.8H230V420.4h.81Z"/><path class="cls-2" d="M236.2,425.75v-3.46a1.37,1.37,0,0,0-.3-1A1.2,1.2,0,0,0,235,421a1.55,1.55,0,0,0-1.23.46,2.29,2.29,0,0,0-.39,1.5v2.8h-.81V420.4h.66l.13.74h0a1.63,1.63,0,0,1,.7-.62,2.29,2.29,0,0,1,1-.21,2,2,0,0,1,1.45.46,2,2,0,0,1,.49,1.49v3.49Z"/><path class="cls-2" d="M243.05,420.4v.52l-1,.11a1.9,1.9,0,0,1,.25.45,1.71,1.71,0,0,1,.11.62,1.59,1.59,0,0,1-.54,1.26,2.19,2.19,0,0,1-1.48.47,3.14,3.14,0,0,1-.45,0,.79.79,0,0,0-.51.69.35.35,0,0,0,.18.32,1.29,1.29,0,0,0,.62.11h.94a2.16,2.16,0,0,1,1.34.36,1.29,1.29,0,0,1,.47,1.07,1.51,1.51,0,0,1-.72,1.35,3.81,3.81,0,0,1-2.08.47,2.85,2.85,0,0,1-1.62-.39,1.28,1.28,0,0,1-.56-1.11,1.23,1.23,0,0,1,.31-.84,1.62,1.62,0,0,1,.88-.49.86.86,0,0,1-.35-.28.78.78,0,0,1-.14-.46.91.91,0,0,1,.16-.51,1.49,1.49,0,0,1,.49-.42,1.46,1.46,0,0,1-.67-.59,1.63,1.63,0,0,1-.26-.93,1.74,1.74,0,0,1,.52-1.36,2.14,2.14,0,0,1,1.5-.47,2.86,2.86,0,0,1,.75.09Zm-4.26,6.25a.73.73,0,0,0,.36.66,2,2,0,0,0,1,.23,2.84,2.84,0,0,0,1.51-.31.94.94,0,0,0,.5-.83.66.66,0,0,0-.27-.6,2.12,2.12,0,0,0-1-.17h-1a1.28,1.28,0,0,0-.86.27A.93.93,0,0,0,238.79,426.65Zm.44-4.53a1.1,1.1,0,0,0,.31.85,1.3,1.3,0,0,0,.89.28,1,1,0,0,0,1.18-1.15,1.06,1.06,0,0,0-1.2-1.2,1.22,1.22,0,0,0-.88.3A1.27,1.27,0,0,0,239.23,422.12Z"/><path class="cls-2" d="M250.9,423.86a1.79,1.79,0,0,1-.68,1.47,3,3,0,0,1-1.86.52,4.78,4.78,0,0,1-2-.32v-.81a4.5,4.5,0,0,0,1,.3,5,5,0,0,0,1,.1,2.08,2.08,0,0,0,1.25-.31,1,1,0,0,0,.42-.88,1.09,1.09,0,0,0-.15-.6,1.3,1.3,0,0,0-.5-.44,6.92,6.92,0,0,0-1.06-.46,3.25,3.25,0,0,1-1.42-.84,1.84,1.84,0,0,1-.43-1.27,1.61,1.61,0,0,1,.62-1.32,2.62,2.62,0,0,1,1.64-.49,4.83,4.83,0,0,1,2,.39l-.26.73a4.37,4.37,0,0,0-1.72-.37,1.66,1.66,0,0,0-1,.28,1,1,0,0,0-.37.79,1.18,1.18,0,0,0,.14.6,1.22,1.22,0,0,0,.46.44,6.33,6.33,0,0,0,1,.43,4.05,4.05,0,0,1,1.55.86A1.72,1.72,0,0,1,250.9,423.86Z"/><path class="cls-2" d="M254,425.18a2.73,2.73,0,0,0,.41,0l.32-.06v.62a1.8,1.8,0,0,1-.39.1,2.6,2.6,0,0,1-.46,0c-1,0-1.55-.54-1.55-1.63V421h-.77v-.39l.77-.33.34-1.15h.47v1.24h1.55V421h-1.55v3.15a1.09,1.09,0,0,0,.23.74A.77.77,0,0,0,254,425.18Z"/><path class="cls-2" d="M264.72,425.75h-.82L262.46,421c-.07-.21-.15-.47-.23-.8a4.49,4.49,0,0,1-.13-.58,11.86,11.86,0,0,1-.34,1.41l-1.4,4.75h-.82l-1.9-7.13h.88l1.13,4.41a16.69,16.69,0,0,1,.34,1.68,12.68,12.68,0,0,1,.39-1.75l1.28-4.34h.88l1.34,4.38a12.74,12.74,0,0,1,.4,1.71,12.48,12.48,0,0,1,.35-1.69l1.12-4.4h.88Z"/><path class="cls-2" d="M269.89,425.85a2.47,2.47,0,0,1-1.88-.72,2.83,2.83,0,0,1-.68-2,3.12,3.12,0,0,1,.63-2.05,2.13,2.13,0,0,1,1.72-.76,2,2,0,0,1,1.59.66,2.52,2.52,0,0,1,.58,1.74v.52h-3.68a2.12,2.12,0,0,0,.47,1.43,1.67,1.67,0,0,0,1.28.48,4.29,4.29,0,0,0,1.7-.36v.73a4,4,0,0,1-.81.26A4.09,4.09,0,0,1,269.89,425.85Zm-.22-4.87a1.32,1.32,0,0,0-1,.42,1.89,1.89,0,0,0-.45,1.17H271a1.77,1.77,0,0,0-.34-1.18A1.2,1.2,0,0,0,269.67,421Z"/><path class="cls-2" d="M276.69,424.29a1.36,1.36,0,0,1-.56,1.16,2.61,2.61,0,0,1-1.56.4,3.46,3.46,0,0,1-1.66-.33v-.76a3.74,3.74,0,0,0,.83.31,3.15,3.15,0,0,0,.85.11,1.85,1.85,0,0,0,1-.2.69.69,0,0,0,.08-1.15,4.8,4.8,0,0,0-1.06-.53,5.26,5.26,0,0,1-1.06-.48,1.5,1.5,0,0,1-.47-.47,1.18,1.18,0,0,1-.16-.63,1.21,1.21,0,0,1,.54-1,2.48,2.48,0,0,1,1.46-.37,4.23,4.23,0,0,1,1.69.35l-.29.66a4,4,0,0,0-1.46-.34,1.66,1.66,0,0,0-.87.18.56.56,0,0,0-.29.5.62.62,0,0,0,.1.37,1.23,1.23,0,0,0,.36.29,7.28,7.28,0,0,0,.94.39,3.52,3.52,0,0,1,1.28.7A1.21,1.21,0,0,1,276.69,424.29Z"/><path class="cls-2" d="M279.73,425.18a2.77,2.77,0,0,0,.42,0l.32-.06v.62a1.8,1.8,0,0,1-.39.1,2.68,2.68,0,0,1-.46,0c-1,0-1.56-.54-1.56-1.63V421h-.76v-.39l.76-.33.35-1.15h.47v1.24h1.55V421h-1.55v3.15a1.09,1.09,0,0,0,.22.74A.79.79,0,0,0,279.73,425.18Z"/><path class="cls-2" d="M288.74,425.75l-.89-2.27H285l-.88,2.27h-.84l2.83-7.16h.69l2.81,7.16Zm-1.14-3-.83-2.21c-.11-.28-.22-.63-.34-1a10.06,10.06,0,0,1-.3,1l-.84,2.21Z"/><path class="cls-2" d="M292.19,425.18a3,3,0,0,0,.42,0l.31-.06v.62a1.65,1.65,0,0,1-.39.1,2.6,2.6,0,0,1-.46,0c-1,0-1.55-.54-1.55-1.63V421h-.77v-.39l.77-.33.34-1.15h.47v1.24h1.55V421h-1.55v3.15a1.09,1.09,0,0,0,.23.74A.77.77,0,0,0,292.19,425.18Z"/><path class="cls-2" d="M228.52,431.7a2,2,0,0,1-.74,1.66,3.34,3.34,0,0,1-2.12.59h-.84v2.8H224v-7.13h1.85C227.63,429.62,228.52,430.31,228.52,431.7Zm-3.7,1.53h.75a2.77,2.77,0,0,0,1.6-.35,1.34,1.34,0,0,0,.49-1.14,1.25,1.25,0,0,0-.46-1.06,2.46,2.46,0,0,0-1.45-.35h-.93Z"/><path class="cls-2" d="M234.51,434.07a3,3,0,0,1-.66,2.05,2.32,2.32,0,0,1-1.82.73,2.49,2.49,0,0,1-1.28-.33,2.24,2.24,0,0,1-.85-1,3.26,3.26,0,0,1-.31-1.48,2.9,2.9,0,0,1,.66-2,2.29,2.29,0,0,1,1.81-.73,2.26,2.26,0,0,1,1.79.74A2.94,2.94,0,0,1,234.51,434.07Zm-4.08,0a2.58,2.58,0,0,0,.41,1.57,1.46,1.46,0,0,0,1.21.53,1.43,1.43,0,0,0,1.21-.53,2.58,2.58,0,0,0,.41-1.57,2.53,2.53,0,0,0-.41-1.55A1.46,1.46,0,0,0,232,432a1.43,1.43,0,0,0-1.2.53A2.49,2.49,0,0,0,230.43,434.07Z"/><path class="cls-2" d="M238.37,431.31a4.06,4.06,0,0,1,.64.05l-.11.76a2.75,2.75,0,0,0-.59-.08,1.44,1.44,0,0,0-1.11.53,2,2,0,0,0-.46,1.31v2.87h-.81V431.4h.67l.09,1h0a2.44,2.44,0,0,1,.72-.8A1.61,1.61,0,0,1,238.37,431.31Z"/><path class="cls-2" d="M241.74,436.18a3,3,0,0,0,.42,0l.31-.06v.62a1.55,1.55,0,0,1-.38.1,2.79,2.79,0,0,1-.47,0c-1,0-1.55-.54-1.55-1.63V432h-.77v-.39l.77-.33.34-1.15h.47v1.24h1.55V432h-1.55v3.15a1.09,1.09,0,0,0,.23.74A.77.77,0,0,0,241.74,436.18Z"/><path class="cls-2" d="M244.35,436.75h-.81v-7.59h.81Z"/><path class="cls-2" d="M249.36,436.75l-.16-.76h0a2,2,0,0,1-.8.68,2.37,2.37,0,0,1-1,.18,1.76,1.76,0,0,1-1.25-.41,1.48,1.48,0,0,1-.45-1.16c0-1.08.87-1.65,2.59-1.7l.91,0v-.34a1.31,1.31,0,0,0-.27-.92A1.08,1.08,0,0,0,248,432a3.58,3.58,0,0,0-1.52.41l-.25-.62a4.12,4.12,0,0,1,.87-.33,3.79,3.79,0,0,1,.94-.12,2.06,2.06,0,0,1,1.42.42,1.76,1.76,0,0,1,.46,1.36v3.65Zm-1.83-.57a1.67,1.67,0,0,0,1.19-.41,1.54,1.54,0,0,0,.43-1.16v-.49l-.81,0a2.87,2.87,0,0,0-1.39.3.89.89,0,0,0-.43.83.81.81,0,0,0,.27.66A1,1,0,0,0,247.53,436.18Z"/><path class="cls-2" d="M255.3,436.75v-3.46a1.37,1.37,0,0,0-.3-1,1.2,1.2,0,0,0-.93-.33,1.58,1.58,0,0,0-1.24.46,2.29,2.29,0,0,0-.39,1.5v2.8h-.81V431.4h.66l.13.74h0a1.69,1.69,0,0,1,.7-.62,2.36,2.36,0,0,1,1-.21,2,2,0,0,1,1.46.46,2,2,0,0,1,.49,1.49v3.49Z"/><path class="cls-2" d="M261.41,436h0a1.9,1.9,0,0,1-1.68.81,2,2,0,0,1-1.63-.72,3.12,3.12,0,0,1-.59-2,3.21,3.21,0,0,1,.59-2,2,2,0,0,1,1.63-.73,1.94,1.94,0,0,1,1.67.79h.06l0-.39,0-.38v-2.17h.81v7.59h-.66Zm-1.62.13a1.49,1.49,0,0,0,1.21-.45,2.27,2.27,0,0,0,.37-1.46v-.17a2.7,2.7,0,0,0-.38-1.62,1.44,1.44,0,0,0-1.21-.49,1.25,1.25,0,0,0-1.09.56,2.77,2.77,0,0,0-.38,1.56,2.64,2.64,0,0,0,.38,1.55A1.27,1.27,0,0,0,259.79,436.17Z"/><path class="cls-2" d="M270.65,434.86a1.77,1.77,0,0,1-.69,1.47,3,3,0,0,1-1.85.52,4.75,4.75,0,0,1-1.95-.32v-.81a4.59,4.59,0,0,0,.95.3,5.21,5.21,0,0,0,1,.1,2.08,2.08,0,0,0,1.25-.31,1,1,0,0,0,.42-.88,1.09,1.09,0,0,0-.15-.6,1.37,1.37,0,0,0-.5-.44,7.4,7.4,0,0,0-1.06-.46,3.19,3.19,0,0,1-1.42-.84,1.84,1.84,0,0,1-.43-1.27,1.59,1.59,0,0,1,.62-1.32,2.6,2.6,0,0,1,1.64-.49,4.86,4.86,0,0,1,2,.39l-.26.73a4.37,4.37,0,0,0-1.72-.37,1.66,1.66,0,0,0-1,.28.93.93,0,0,0-.37.79,1.19,1.19,0,0,0,.13.6,1.34,1.34,0,0,0,.47.44,5.57,5.57,0,0,0,1,.43,4.14,4.14,0,0,1,1.55.86A1.72,1.72,0,0,1,270.65,434.86Z"/><path class="cls-2" d="M273.71,436.18a2.77,2.77,0,0,0,.42,0l.32-.06v.62a1.8,1.8,0,0,1-.39.1,2.68,2.68,0,0,1-.46,0c-1,0-1.56-.54-1.56-1.63V432h-.76v-.39l.76-.33.35-1.15h.46v1.24h1.56V432h-1.56v3.15a1.09,1.09,0,0,0,.23.74A.79.79,0,0,0,273.71,436.18Z"/><path class="cls-2" d="M282.21,436.75h-4v-7.13h4v.73h-3.14v2.3H282v.74h-2.95V436h3.14Z"/><path class="cls-2" d="M287,436.75l-.17-.76h0a2.18,2.18,0,0,1-.8.68,2.45,2.45,0,0,1-1,.18,1.74,1.74,0,0,1-1.24-.41,1.46,1.46,0,0,1-.46-1.16c0-1.08.87-1.65,2.6-1.7l.91,0v-.34a1.27,1.27,0,0,0-.28-.92,1.08,1.08,0,0,0-.86-.31,3.62,3.62,0,0,0-1.52.41l-.24-.62a3.91,3.91,0,0,1,1.81-.45,2,2,0,0,1,1.41.42,1.76,1.76,0,0,1,.47,1.36v3.65Zm-1.84-.57a1.65,1.65,0,0,0,1.19-.41,1.54,1.54,0,0,0,.44-1.16v-.49l-.81,0a2.91,2.91,0,0,0-1.4.3.91.91,0,0,0-.43.83.81.81,0,0,0,.27.66A1.08,1.08,0,0,0,285.13,436.18Z"/><path class="cls-2" d="M292.69,435.29a1.36,1.36,0,0,1-.56,1.16,2.61,2.61,0,0,1-1.56.4,3.46,3.46,0,0,1-1.66-.33v-.76a3.74,3.74,0,0,0,.83.31,3.2,3.2,0,0,0,.85.11,1.91,1.91,0,0,0,1-.2.68.68,0,0,0,.34-.62.66.66,0,0,0-.27-.53,4.57,4.57,0,0,0-1.06-.53,5.26,5.26,0,0,1-1.06-.48,1.5,1.5,0,0,1-.47-.47,1.28,1.28,0,0,1-.16-.63,1.21,1.21,0,0,1,.54-1,2.48,2.48,0,0,1,1.46-.37,4.2,4.2,0,0,1,1.69.35l-.29.66a4,4,0,0,0-1.46-.34,1.66,1.66,0,0,0-.87.18.61.61,0,0,0-.18.87,1.06,1.06,0,0,0,.35.29,7.28,7.28,0,0,0,.94.39,3.52,3.52,0,0,1,1.28.7A1.21,1.21,0,0,1,292.69,435.29Z"/><path class="cls-2" d="M295.74,436.18a2.73,2.73,0,0,0,.41,0l.32-.06v.62a1.8,1.8,0,0,1-.39.1,2.68,2.68,0,0,1-.46,0c-1,0-1.55-.54-1.55-1.63V432h-.77v-.39l.77-.33.34-1.15h.47v1.24h1.55V432h-1.55v3.15a1,1,0,0,0,.23.74A.77.77,0,0,0,295.74,436.18Z"/><path class="cls-2" d="M304.29,434.86a1.77,1.77,0,0,1-.69,1.47,3,3,0,0,1-1.85.52,4.83,4.83,0,0,1-2-.32v-.81a4.68,4.68,0,0,0,1,.3,5.14,5.14,0,0,0,1,.1,2.08,2.08,0,0,0,1.25-.31,1.06,1.06,0,0,0,.42-.88,1.09,1.09,0,0,0-.15-.6,1.37,1.37,0,0,0-.5-.44,7.4,7.4,0,0,0-1.06-.46,3.29,3.29,0,0,1-1.43-.84,1.89,1.89,0,0,1-.42-1.27,1.59,1.59,0,0,1,.62-1.32,2.6,2.6,0,0,1,1.64-.49,4.78,4.78,0,0,1,2,.39l-.25.73a4.41,4.41,0,0,0-1.72-.37,1.64,1.64,0,0,0-1,.28.93.93,0,0,0-.37.79,1.19,1.19,0,0,0,.13.6,1.3,1.3,0,0,0,.46.44,6.1,6.1,0,0,0,1,.43,4,4,0,0,1,1.54.86A1.73,1.73,0,0,1,304.29,434.86Z"/><path class="cls-2" d="M305.55,430a.56.56,0,0,1,.14-.41.5.5,0,0,1,.34-.12.47.47,0,0,1,.34.13.54.54,0,0,1,.14.4.56.56,0,0,1-.14.41.48.48,0,0,1-.68,0A.56.56,0,0,1,305.55,430Zm.88,6.8h-.81V431.4h.81Z"/><path class="cls-2" d="M311.79,436h0a1.9,1.9,0,0,1-1.68.81,2,2,0,0,1-1.63-.72,3.12,3.12,0,0,1-.59-2,3.21,3.21,0,0,1,.59-2,2,2,0,0,1,1.63-.73,1.94,1.94,0,0,1,1.67.79h.06l0-.39,0-.38v-2.17h.81v7.59h-.66Zm-1.62.13a1.49,1.49,0,0,0,1.21-.45,2.27,2.27,0,0,0,.37-1.46v-.17a2.63,2.63,0,0,0-.38-1.62,1.44,1.44,0,0,0-1.21-.49,1.26,1.26,0,0,0-1.09.56,2.77,2.77,0,0,0-.38,1.56,2.64,2.64,0,0,0,.38,1.55A1.27,1.27,0,0,0,310.17,436.17Z"/><path class="cls-2" d="M316.54,436.85a2.46,2.46,0,0,1-1.87-.72,2.79,2.79,0,0,1-.69-2,3.07,3.07,0,0,1,.64-2.05,2.09,2.09,0,0,1,1.71-.76,2,2,0,0,1,1.59.66,2.53,2.53,0,0,1,.59,1.74v.52h-3.69a2.17,2.17,0,0,0,.48,1.43,1.65,1.65,0,0,0,1.27.48,4.3,4.3,0,0,0,1.71-.36v.73a4.43,4.43,0,0,1-.81.26A4.24,4.24,0,0,1,316.54,436.85Zm-.22-4.87a1.33,1.33,0,0,0-1,.42,2,2,0,0,0-.45,1.17h2.8a1.77,1.77,0,0,0-.34-1.18A1.22,1.22,0,0,0,316.32,432Z"/></g></g></svg>