<svg xmlns="http://www.w3.org/2000/svg" viewBox="0 0 654.5 505.78"><defs><style>.cls-1{fill:#ffc908;}.cls-2{fill:#eae8e8;}.cls-3{fill:#fbb416;}</style></defs><title>minimap_1</title><g id="Layer_2" data-name="Layer 2"><g id="Layer_3" data-name="Layer 3"><rect class="cls-1" y="86.32" width="654.5" height="23.08" rx="11.54"/><rect class="cls-1" x="119.68" y="234.97" width="248.56" height="9.67" rx="4.83"/><rect class="cls-1" x="311.26" y="153.76" width="144.54" height="9.67" rx="4.83" transform="translate(542.12 -224.93) rotate(90)"/><rect class="cls-1" x="152.62" y="49.87" width="109.4" height="9.67" rx="4.83" transform="translate(262.02 -152.62) rotate(90)"/><rect class="cls-1" x="231.76" y="49.87" width="109.4" height="9.67" rx="4.83" transform="translate(341.16 -231.76) rotate(90)"/><rect class="cls-1" x="172.87" y="210.19" width="59.24" height="9.67" rx="4.83" transform="translate(417.51 12.54) rotate(90)"/><rect class="cls-1" x="313.84" y="320.86" width="135.6" height="9.67" rx="4.83" transform="translate(707.33 -55.95) rotate(90)"/><rect class="cls-1" x="-121.67" y="241.35" width="505.78" height="23.08" rx="11.54" transform="translate(384.11 121.67) rotate(90)"/><rect class="cls-1" x="327.58" y="185.21" width="393.49" height="23.08" rx="11.54" transform="translate(721.07 -327.58) rotate(90)"/><rect class="cls-1" y="370.41" width="654.5" height="23.08" rx="11.54"/><circle class="cls-2" cx="212.59" cy="350.08" r="5.26"/><circle class="cls-2" cx="358.97" cy="350.08" r="5.26"/><rect class="cls-2" x="156.72" y="355.34" width="10.84" height="10.84"/><rect class="cls-2" x="241.42" y="399.32" width="10.84" height="10.84"/><path class="cls-3" d="M252.26,317.24a10.95,10.95,0,0,0-9.64,16.16l9,16.36a.69.69,0,0,0,1.2,0l9-16.36a10.95,10.95,0,0,0-9.64-16.16Zm0,16.43a5.48,5.48,0,1,1,5.48-5.48A5.48,5.48,0,0,1,252.26,333.67Z"/></g><g id="Layer_4" data-name="Layer 4"><path class="cls-3" d="M231.06,308.66H224.7V297.23h6.36v1.18h-5v3.68h4.74v1.18H226v4.2h5Z"/><path class="cls-3" d="M235.27,308.66,232,300.09h1.39l1.85,5.08c.41,1.19.66,2,.73,2.31h.06c.06-.27.24-.84.55-1.71s1-2.76,2.05-5.68H240l-3.25,8.57Z"/><path class="cls-3" d="M245,308.81a3.93,3.93,0,0,1-3-1.15,4.44,4.44,0,0,1-1.1-3.21,5,5,0,0,1,1-3.29,3.36,3.36,0,0,1,2.74-1.22,3.2,3.2,0,0,1,2.54,1.06,4,4,0,0,1,.94,2.79v.82h-5.9a3.42,3.42,0,0,0,.76,2.29,2.64,2.64,0,0,0,2,.78,6.8,6.8,0,0,0,2.73-.58v1.16a6.3,6.3,0,0,1-1.3.42A7,7,0,0,1,245,308.81Zm-.35-7.79a2.09,2.09,0,0,0-1.64.68,3.09,3.09,0,0,0-.73,1.85h4.48a2.8,2.8,0,0,0-.55-1.87A1.9,1.9,0,0,0,244.68,301Z"/><path class="cls-3" d="M254.3,299.94a5.23,5.23,0,0,1,1,.09l-.18,1.2a4.94,4.94,0,0,0-.94-.11,2.27,2.27,0,0,0-1.77.84,3,3,0,0,0-.74,2.1v4.6h-1.3v-8.57h1.07l.15,1.59h.06a3.73,3.73,0,0,1,1.15-1.29A2.61,2.61,0,0,1,254.3,299.94Z"/><path class="cls-3" d="M258.22,308.66h-1.3V296.5h1.3Z"/><path class="cls-3" d="M264.59,308.81a3.93,3.93,0,0,1-3-1.15,4.48,4.48,0,0,1-1.1-3.21,5,5,0,0,1,1-3.29,3.36,3.36,0,0,1,2.74-1.22A3.23,3.23,0,0,1,266.8,301a4.05,4.05,0,0,1,.93,2.79v.82h-5.89a3.36,3.36,0,0,0,.76,2.29,2.63,2.63,0,0,0,2,.78,6.85,6.85,0,0,0,2.74-.58v1.16a6.3,6.3,0,0,1-1.3.42A7.08,7.08,0,0,1,264.59,308.81Zm-.36-7.79a2.12,2.12,0,0,0-1.64.68,3,3,0,0,0-.72,1.85h4.47a2.86,2.86,0,0,0-.54-1.87A1.93,1.93,0,0,0,264.23,301Z"/><path class="cls-3" d="M269.84,297.77a.89.89,0,0,1,.21-.65.81.81,0,0,1,1.09,0,.87.87,0,0,1,.23.65.88.88,0,0,1-.23.66.81.81,0,0,1-1.09,0A.92.92,0,0,1,269.84,297.77Zm1.4,10.89H270v-8.57h1.29Z"/><path class="cls-3" d="M281,300.09v.82l-1.59.19a2.42,2.42,0,0,1,.39.72,2.57,2.57,0,0,1,.18,1,2.54,2.54,0,0,1-.86,2,3.48,3.48,0,0,1-2.36.75,4,4,0,0,1-.72-.06,1.28,1.28,0,0,0-.83,1.1.57.57,0,0,0,.29.52,2.11,2.11,0,0,0,1,.17H278a3.38,3.38,0,0,1,2.13.58,2,2,0,0,1,.75,1.71,2.42,2.42,0,0,1-1.14,2.16,6.08,6.08,0,0,1-3.33.75,4.53,4.53,0,0,1-2.59-.63,2.12,2.12,0,0,1-.41-3.11,2.56,2.56,0,0,1,1.41-.78,1.28,1.28,0,0,1-.55-.46,1.19,1.19,0,0,1-.23-.72,1.4,1.4,0,0,1,.25-.82,2.61,2.61,0,0,1,.79-.68,2.36,2.36,0,0,1-1.08-.93,2.73,2.73,0,0,1-.42-1.5,2.79,2.79,0,0,1,.85-2.17,3.43,3.43,0,0,1,2.39-.76,4.5,4.5,0,0,1,1.21.15Zm-6.83,10a1.17,1.17,0,0,0,.59,1.06,3.23,3.23,0,0,0,1.68.36,4.76,4.76,0,0,0,2.42-.49,1.5,1.5,0,0,0,.78-1.32,1,1,0,0,0-.43-1,3.33,3.33,0,0,0-1.62-.27H276a2.07,2.07,0,0,0-1.38.42A1.54,1.54,0,0,0,274.17,310.09Zm.71-7.25a1.74,1.74,0,0,0,.5,1.36,2.07,2.07,0,0,0,1.42.46,1.66,1.66,0,0,0,1.9-1.85,1.71,1.71,0,0,0-1.93-1.93,1.92,1.92,0,0,0-1.4.49A2,2,0,0,0,274.88,302.84Z"/><path class="cls-3" d="M288.62,308.66v-5.54a2.25,2.25,0,0,0-.48-1.57,2,2,0,0,0-1.49-.51,2.43,2.43,0,0,0-2,.73,3.7,3.7,0,0,0-.63,2.41v4.48h-1.29V296.5h1.29v3.68a8.33,8.33,0,0,1-.06,1.1h.08a2.71,2.71,0,0,1,1.09-1,3.5,3.5,0,0,1,1.61-.36,3.29,3.29,0,0,1,2.36.75,3.16,3.16,0,0,1,.78,2.37v5.59Z"/><path class="cls-1" d="M417,415.11h-1.57l-4.16-5.54-1.2,1.07v4.47H408.7V403.69H410v5.66l5.18-5.66h1.57l-4.59,5Z"/><path class="cls-1" d="M418.21,404.23a.82.82,0,0,1,.22-.65.77.77,0,0,1,.55-.21.8.8,0,0,1,.54.21,1.07,1.07,0,0,1,0,1.3.76.76,0,0,1-.54.22.74.74,0,0,1-.55-.22A.85.85,0,0,1,418.21,404.23Zm1.41,10.88h-1.3v-8.56h1.3Z"/><path class="cls-1" d="M428.23,415.11v-5.54a2.21,2.21,0,0,0-.48-1.56,2,2,0,0,0-1.49-.51,2.47,2.47,0,0,0-2,.72,3.67,3.67,0,0,0-.63,2.4v4.49h-1.29v-8.56h1.05l.21,1.17h.07a2.59,2.59,0,0,1,1.11-1,3.68,3.68,0,0,1,1.6-.35,3.23,3.23,0,0,1,2.33.75,3.18,3.18,0,0,1,.78,2.39v5.58Z"/><path class="cls-1" d="M439.2,406.55v.82l-1.59.19a3.1,3.1,0,0,1,.39.71,2.87,2.87,0,0,1,.17,1,2.54,2.54,0,0,1-.86,2A3.46,3.46,0,0,1,435,412a3.38,3.38,0,0,1-.72-.07,1.28,1.28,0,0,0-.82,1.11.54.54,0,0,0,.29.51,2,2,0,0,0,1,.17h1.51a3.41,3.41,0,0,1,2.14.59,2,2,0,0,1,.75,1.7,2.44,2.44,0,0,1-1.14,2.17,6.1,6.1,0,0,1-3.33.75,4.5,4.5,0,0,1-2.59-.63,2,2,0,0,1-.91-1.76,2,2,0,0,1,.5-1.36,2.56,2.56,0,0,1,1.4-.77,1.35,1.35,0,0,1-.55-.46,1.21,1.21,0,0,1-.22-.73,1.37,1.37,0,0,1,.25-.82,2.75,2.75,0,0,1,.79-.68,2.3,2.3,0,0,1-1.08-.93,2.69,2.69,0,0,1-.42-1.5,2.76,2.76,0,0,1,.84-2.16,3.45,3.45,0,0,1,2.39-.77,4.43,4.43,0,0,1,1.21.16Zm-6.83,10a1.14,1.14,0,0,0,.58,1.05,3.23,3.23,0,0,0,1.68.36,4.75,4.75,0,0,0,2.42-.48,1.52,1.52,0,0,0,.79-1.33,1.06,1.06,0,0,0-.43-1,3.36,3.36,0,0,0-1.62-.27h-1.56a2.06,2.06,0,0,0-1.37.42A1.49,1.49,0,0,0,432.37,416.55Zm.7-7.26a1.74,1.74,0,0,0,.51,1.36,2,2,0,0,0,1.41.46,1.65,1.65,0,0,0,1.9-1.84,1.7,1.7,0,0,0-1.92-1.93,1.91,1.91,0,0,0-1.41.49A2,2,0,0,0,433.07,409.29Z"/><path class="cls-1" d="M451.75,412.07a2.81,2.81,0,0,1-1.09,2.35,4.7,4.7,0,0,1-3,.85,7.6,7.6,0,0,1-3.13-.52v-1.29a8.36,8.36,0,0,0,3.17.64,3.26,3.26,0,0,0,2-.5,1.65,1.65,0,0,0,.68-1.4,1.76,1.76,0,0,0-.24-1,2.16,2.16,0,0,0-.8-.7,10.34,10.34,0,0,0-1.7-.73,5.49,5.49,0,0,1-2.28-1.35,3,3,0,0,1-.68-2,2.53,2.53,0,0,1,1-2.1,4.14,4.14,0,0,1,2.63-.78,7.67,7.67,0,0,1,3.13.62l-.41,1.16a7,7,0,0,0-2.75-.6,2.65,2.65,0,0,0-1.65.46,1.48,1.48,0,0,0-.6,1.25,2,2,0,0,0,.22,1,2.16,2.16,0,0,0,.74.69,9.09,9.09,0,0,0,1.59.7,6.29,6.29,0,0,1,2.47,1.38A2.7,2.7,0,0,1,451.75,412.07Z"/><path class="cls-1" d="M456.66,414.2a4.77,4.77,0,0,0,.66-.05c.21,0,.38-.07.51-.11v1a2.15,2.15,0,0,1-.62.17,4.16,4.16,0,0,1-.74.07c-1.66,0-2.49-.87-2.49-2.62v-5.09h-1.22v-.63l1.22-.54.55-1.82h.75v2h2.49v1h-2.49v5a1.69,1.69,0,0,0,.37,1.18A1.26,1.26,0,0,0,456.66,414.2Z"/><path class="cls-1" d="M473.86,415.11h-1.31l-2.31-7.65c-.11-.34-.23-.76-.36-1.28a7.89,7.89,0,0,1-.22-.93,17,17,0,0,1-.54,2.26l-2.24,7.6h-1.31l-3-11.42h1.41l1.8,7.06a27.3,27.3,0,0,1,.55,2.68,20.11,20.11,0,0,1,.62-2.79l2-6.95h1.41l2.15,7a21.26,21.26,0,0,1,.63,2.73,22.59,22.59,0,0,1,.56-2.7l1.8-7h1.4Z"/><path class="cls-1" d="M342.16,74.58,340.74,71h-4.58l-1.41,3.63h-1.34l4.52-11.47H339l4.5,11.47Zm-1.84-4.83L339,66.21c-.18-.44-.35-1-.54-1.64a12.25,12.25,0,0,1-.49,1.64l-1.34,3.54Z"/><path class="cls-1" d="M350.74,73.43h-.07A3.06,3.06,0,0,1,348,74.74a3.19,3.19,0,0,1-2.61-1.15,5.09,5.09,0,0,1-.94-3.27,5.19,5.19,0,0,1,.94-3.29A3.17,3.17,0,0,1,348,65.86a3.1,3.1,0,0,1,2.67,1.27h.1l-.05-.62,0-.6V62.42H352V74.58h-1Zm-2.6.22a2.37,2.37,0,0,0,1.93-.72,3.64,3.64,0,0,0,.6-2.33v-.28a4.21,4.21,0,0,0-.61-2.59,2.29,2.29,0,0,0-1.93-.78,2,2,0,0,0-1.75.88,4.48,4.48,0,0,0-.6,2.51,4.26,4.26,0,0,0,.6,2.48A2,2,0,0,0,348.14,73.65Z"/><path class="cls-1" d="M358.33,74.74a3.93,3.93,0,0,1-3-1.16,4.44,4.44,0,0,1-1.1-3.21,5,5,0,0,1,1-3.29A3.39,3.39,0,0,1,358,65.86a3.23,3.23,0,0,1,2.54,1.06,4,4,0,0,1,.94,2.79v.82h-5.9a3.42,3.42,0,0,0,.76,2.29,2.65,2.65,0,0,0,2,.78,7,7,0,0,0,2.73-.57v1.15a6.81,6.81,0,0,1-1.3.43A7.75,7.75,0,0,1,358.33,74.74ZM358,67a2.1,2.1,0,0,0-1.64.67,3.15,3.15,0,0,0-.73,1.86h4.48a2.83,2.83,0,0,0-.55-1.88A1.92,1.92,0,0,0,358,67Z"/><path class="cls-1" d="M365,74.58h-1.3V62.42H365Z"/><path class="cls-1" d="M373,74.58l-.25-1.22h-.07a3.53,3.53,0,0,1-1.27,1.09,3.93,3.93,0,0,1-1.59.29,2.86,2.86,0,0,1-2-.66,2.4,2.4,0,0,1-.72-1.87q0-2.59,4.15-2.71l1.45,0v-.53a2.23,2.23,0,0,0-.43-1.49,1.8,1.8,0,0,0-1.39-.48,5.74,5.74,0,0,0-2.42.65l-.4-1a6.16,6.16,0,0,1,2.9-.73,3.24,3.24,0,0,1,2.27.68,2.84,2.84,0,0,1,.73,2.18v5.84Zm-2.93-.91A2.62,2.62,0,0,0,372,73a2.45,2.45,0,0,0,.69-1.86v-.77l-1.3,0a4.68,4.68,0,0,0-2.23.49,1.43,1.43,0,0,0-.68,1.32,1.34,1.34,0,0,0,.42,1.07A1.8,1.8,0,0,0,370.07,73.67Z"/><path class="cls-1" d="M376.53,63.7a.82.82,0,0,1,.22-.65.73.73,0,0,1,.54-.21.76.76,0,0,1,.54.21,1,1,0,0,1,0,1.3.77.77,0,0,1-.54.22.74.74,0,0,1-.54-.22A.85.85,0,0,1,376.53,63.7Zm1.4,10.88h-1.29V66h1.29Z"/><path class="cls-1" d="M386.51,73.43h-.07a3,3,0,0,1-2.69,1.31,3.19,3.19,0,0,1-2.61-1.15,5.09,5.09,0,0,1-.93-3.27,5.19,5.19,0,0,1,.93-3.29,3.17,3.17,0,0,1,2.61-1.17,3.11,3.11,0,0,1,2.68,1.27h.1l-.06-.62,0-.6V62.42h1.3V74.58h-1.06Zm-2.59.22a2.35,2.35,0,0,0,1.92-.72,3.64,3.64,0,0,0,.6-2.33v-.28a4.29,4.29,0,0,0-.6-2.59A2.31,2.31,0,0,0,383.9,67a2,2,0,0,0-1.74.88,4.39,4.39,0,0,0-.61,2.51,4.26,4.26,0,0,0,.6,2.48A2.05,2.05,0,0,0,383.92,73.65Z"/><path class="cls-1" d="M394.11,74.74a3.94,3.94,0,0,1-3-1.16,4.48,4.48,0,0,1-1.1-3.21,5,5,0,0,1,1-3.29,3.39,3.39,0,0,1,2.74-1.22,3.27,3.27,0,0,1,2.55,1.06,4.09,4.09,0,0,1,.93,2.79v.82h-5.89a3.36,3.36,0,0,0,.76,2.29,2.63,2.63,0,0,0,2,.78,7,7,0,0,0,2.74-.57v1.15a7,7,0,0,1-1.3.43A7.82,7.82,0,0,1,394.11,74.74ZM393.75,67a2.11,2.11,0,0,0-1.64.67,3.08,3.08,0,0,0-.72,1.86h4.47a2.89,2.89,0,0,0-.54-1.88A2,2,0,0,0,393.75,67Z"/><path class="cls-1" d="M410.26,71.54a2.78,2.78,0,0,1-1.09,2.35,4.7,4.7,0,0,1-3,.85,7.42,7.42,0,0,1-3.13-.53V72.93a7.71,7.71,0,0,0,1.54.47,7.61,7.61,0,0,0,1.64.17,3.3,3.3,0,0,0,2-.5,1.67,1.67,0,0,0,.67-1.4,1.82,1.82,0,0,0-.24-1,2.23,2.23,0,0,0-.8-.69,10.34,10.34,0,0,0-1.7-.73,5.38,5.38,0,0,1-2.27-1.35,3,3,0,0,1-.69-2,2.53,2.53,0,0,1,1-2.1,4.16,4.16,0,0,1,2.63-.78,7.64,7.64,0,0,1,3.13.62l-.41,1.16a7,7,0,0,0-2.75-.6,2.63,2.63,0,0,0-1.65.46,1.47,1.47,0,0,0-.59,1.25,1.92,1.92,0,0,0,.22,1,2,2,0,0,0,.73.69,9.09,9.09,0,0,0,1.59.7,6.34,6.34,0,0,1,2.48,1.38A2.69,2.69,0,0,1,410.26,71.54Z"/><path class="cls-1" d="M415.17,73.67a4.65,4.65,0,0,0,.66,0,4.71,4.71,0,0,0,.51-.11v1a2.15,2.15,0,0,1-.62.17,5.24,5.24,0,0,1-.74.07c-1.66,0-2.48-.87-2.48-2.62V67h-1.23V66.4l1.23-.54L413,64h.75v2h2.49v1h-2.49v5a1.74,1.74,0,0,0,.37,1.18A1.28,1.28,0,0,0,415.17,73.67Z"/><path class="cls-1" d="M432.37,74.58h-1.31l-2.31-7.65c-.11-.34-.23-.76-.36-1.28a5.58,5.58,0,0,1-.21-.93,18.84,18.84,0,0,1-.55,2.26l-2.24,7.6h-1.31l-3-11.42h1.41l1.8,7a25.29,25.29,0,0,1,.55,2.69,19.2,19.2,0,0,1,.63-2.8l2-6.94h1.41l2.15,7a20.88,20.88,0,0,1,.63,2.73,24.77,24.77,0,0,1,.56-2.7l1.8-7h1.41Z"/><path class="cls-1" d="M100.73,211.89a3.19,3.19,0,0,1-2.67-1.18,5.39,5.39,0,0,1-.93-3.39V206H92.64v-1.33h11.42v3C104.06,210.47,103,211.89,100.73,211.89ZM98.27,206v1.2a4.45,4.45,0,0,0,.57,2.55,2.09,2.09,0,0,0,1.83.79,2,2,0,0,0,1.68-.74,3.89,3.89,0,0,0,.56-2.31V206Z"/><path class="cls-1" d="M96.92,221.48a4.71,4.71,0,0,1-3.26-1,3.72,3.72,0,0,1-1.18-2.92,3.89,3.89,0,0,1,.54-2,3.52,3.52,0,0,1,1.55-1.37,5.25,5.25,0,0,1,2.35-.49,4.72,4.72,0,0,1,3.27,1,3.74,3.74,0,0,1,1.16,2.91,3.6,3.6,0,0,1-1.19,2.85A4.7,4.7,0,0,1,96.92,221.48Zm0-6.52a4.14,4.14,0,0,0-2.5.65,2.63,2.63,0,0,0,0,3.87,5,5,0,0,0,5,0,2.33,2.33,0,0,0,.84-1.95,2.29,2.29,0,0,0-.83-1.92A4,4,0,0,0,96.92,215Z"/><path class="cls-1" d="M101.35,227.66a5.23,5.23,0,0,1-.09,1l-1.2-.18a4.17,4.17,0,0,0,.11-.93,2.28,2.28,0,0,0-.84-1.78,3.08,3.08,0,0,0-2.1-.74H92.64v-1.3h8.56v1.07l-1.59.15V225a3.71,3.71,0,0,1,1.29,1.14A2.61,2.61,0,0,1,101.35,227.66Z"/><path class="cls-1" d="M93.55,233.05a4.91,4.91,0,0,0,0,.67,3,3,0,0,0,.11.5h-1a2.47,2.47,0,0,1-.16-.62,4.08,4.08,0,0,1-.07-.74c0-1.65.87-2.48,2.62-2.48h5.09v-1.23h.63l.53,1.23,1.83.55v.75h-2v2.48h-1v-2.48h-5A1.78,1.78,0,0,0,94,232,1.3,1.3,0,0,0,93.55,233.05Z"/><path class="cls-1" d="M92.64,237.23v-1.3h12.15v1.3Z"/><path class="cls-1" d="M92.64,245.25l1.21-.26v-.06a3.74,3.74,0,0,1-1.09-1.28,3.94,3.94,0,0,1-.28-1.59,2.86,2.86,0,0,1,.66-2,2.38,2.38,0,0,1,1.86-.72q2.59,0,2.72,4.15l0,1.45h.53a2.17,2.17,0,0,0,1.49-.43,1.79,1.79,0,0,0,.48-1.39,5.63,5.63,0,0,0-.66-2.42l1-.4a6.32,6.32,0,0,1,.74,2.9,3.28,3.28,0,0,1-.68,2.27,2.84,2.84,0,0,1-2.18.74H92.64Zm.91-2.93a2.65,2.65,0,0,0,.66,1.9,2.48,2.48,0,0,0,1.86.69h.78l-.06-1.3a4.58,4.58,0,0,0-.48-2.23A1.45,1.45,0,0,0,95,240.7a1.31,1.31,0,0,0-1.07.43A1.73,1.73,0,0,0,93.55,242.32Z"/><path class="cls-1" d="M92.64,254.74h5.53a2.25,2.25,0,0,0,1.57-.48,2,2,0,0,0,.51-1.49,2.47,2.47,0,0,0-.72-2,3.67,3.67,0,0,0-2.4-.62H92.64v-1.3h8.56v1.05l-1.17.21v.07a2.72,2.72,0,0,1,1,1.11,3.69,3.69,0,0,1,.34,1.61,3.22,3.22,0,0,1-.74,2.32,3.18,3.18,0,0,1-2.39.79H92.64Z"/><path class="cls-1" d="M93.78,264.53v-.07a3.05,3.05,0,0,1-1.3-2.69,3.16,3.16,0,0,1,1.15-2.61,5,5,0,0,1,3.26-.94,5.17,5.17,0,0,1,3.29.94,3.17,3.17,0,0,1,1.17,2.61,3.12,3.12,0,0,1-1.26,2.67v.1l.62-.05.6,0h3.48v1.29H92.64V264.7Zm-.21-2.6a2.37,2.37,0,0,0,.72,1.93,3.64,3.64,0,0,0,2.33.6h.27a4.25,4.25,0,0,0,2.6-.61,2.29,2.29,0,0,0,.78-1.93,2,2,0,0,0-.89-1.75,4.42,4.42,0,0,0-2.5-.6,4.24,4.24,0,0,0-2.48.6A2,2,0,0,0,93.57,261.93Z"/><path class="cls-1" d="M95.67,279.3a2.81,2.81,0,0,1-2.35-1.09,4.76,4.76,0,0,1-.84-3,7.44,7.44,0,0,1,.52-3.13h1.28a8.55,8.55,0,0,0-.46,1.53,7.79,7.79,0,0,0-.18,1.65,3.3,3.3,0,0,0,.51,2,1.66,1.66,0,0,0,1.4.67,1.76,1.76,0,0,0,1-.24,2.25,2.25,0,0,0,.7-.8,10.34,10.34,0,0,0,.73-1.7A5.38,5.38,0,0,1,99.3,273a3,3,0,0,1,2-.69,2.53,2.53,0,0,1,2.1,1,4.16,4.16,0,0,1,.78,2.63,7.84,7.84,0,0,1-.62,3.13l-1.16-.41a7,7,0,0,0,.59-2.75,2.67,2.67,0,0,0-.45-1.65,1.48,1.48,0,0,0-1.26-.59,2,2,0,0,0-1,.21,2.16,2.16,0,0,0-.69.74,8.39,8.39,0,0,0-.7,1.59,6.29,6.29,0,0,1-1.38,2.47A2.66,2.66,0,0,1,95.67,279.3Z"/><path class="cls-1" d="M93.55,284.21a4.65,4.65,0,0,0,0,.66,3.37,3.37,0,0,0,.11.51h-1a2.59,2.59,0,0,1-.16-.62,4.16,4.16,0,0,1-.07-.74c0-1.66.87-2.48,2.62-2.48h5.09v-1.23h.63l.53,1.23,1.83.54v.75h-2v2.49h-1v-2.49h-5a1.78,1.78,0,0,0-1.19.37A1.29,1.29,0,0,0,93.55,284.21Z"/><path class="cls-1" d="M561.65,204.65v3.23a6.14,6.14,0,0,1-.68,3.29,2.39,2.39,0,0,1-2.15,1,2.46,2.46,0,0,1-1.67-.56,2.74,2.74,0,0,1-.86-1.65h-.08c-.29,1.73-1.2,2.6-2.73,2.6a2.94,2.94,0,0,1-2.39-1,4.41,4.41,0,0,1-.86-2.89v-4Zm-6,1.33h-4.28v2.38a3.39,3.39,0,0,0,.54,2.09,2,2,0,0,0,1.67.69,1.78,1.78,0,0,0,1.57-.71,3.86,3.86,0,0,0,.5-2.18Zm1.12,0v2.19a3.58,3.58,0,0,0,.44,2,1.72,1.72,0,0,0,1.49.62,1.52,1.52,0,0,0,1.39-.69,4.36,4.36,0,0,0,.42-2.19v-2Z"/><path class="cls-1" d="M559,218.73a4.52,4.52,0,0,1-.1,1l-1.2-.18a4.23,4.23,0,0,0,.12-.93,2.26,2.26,0,0,0-.85-1.78,3.08,3.08,0,0,0-2.1-.74h-4.59v-1.3h8.56v1.07l-1.58.15v.07a3.9,3.9,0,0,1,1.29,1.14A2.61,2.61,0,0,1,559,218.73Z"/><path class="cls-1" d="M550.23,226.62l1.22-.26v-.06a3.55,3.55,0,0,1-1.09-1.28,3.86,3.86,0,0,1-.29-1.59,2.83,2.83,0,0,1,.66-2,2.4,2.4,0,0,1,1.87-.72c1.73,0,2.63,1.38,2.72,4.14l0,1.46h.53a2.16,2.16,0,0,0,1.49-.44,1.78,1.78,0,0,0,.48-1.38,5.78,5.78,0,0,0-.65-2.43l1-.39a6.08,6.08,0,0,1,.73,2.89,3.21,3.21,0,0,1-.68,2.27,2.8,2.8,0,0,1-2.18.74h-5.84Zm.91-2.93a2.63,2.63,0,0,0,.67,1.9,2.42,2.42,0,0,0,1.86.7h.77l-.05-1.3a4.79,4.79,0,0,0-.48-2.23,1.46,1.46,0,0,0-1.33-.69,1.36,1.36,0,0,0-1.07.43A1.78,1.78,0,0,0,551.14,223.69Z"/><path class="cls-1" d="M550.23,236.11h5.54a2.26,2.26,0,0,0,1.56-.47,2,2,0,0,0,.52-1.5,2.46,2.46,0,0,0-.73-2,3.63,3.63,0,0,0-2.4-.63h-4.49v-1.3h8.56v1.06l-1.17.21v.06a2.68,2.68,0,0,1,1,1.12,3.65,3.65,0,0,1,.35,1.6,3.25,3.25,0,0,1-.75,2.33,3.16,3.16,0,0,1-2.38.78h-5.59Z"/><path class="cls-1" d="M551.14,242.84a4.65,4.65,0,0,0,.05.66,4.22,4.22,0,0,0,.11.51h-1a2.15,2.15,0,0,1-.17-.62,5.24,5.24,0,0,1-.07-.74c0-1.65.88-2.48,2.62-2.48h5.09v-1.23h.63l.54,1.23,1.83.55v.75h-2V244h-1v-2.48h-5a1.75,1.75,0,0,0-1.19.36A1.28,1.28,0,0,0,551.14,242.84Z"/><path class="cls-1" d="M553.27,256.52a2.78,2.78,0,0,1-2.35-1.09,4.7,4.7,0,0,1-.85-3,7.42,7.42,0,0,1,.53-3.13h1.28a8.36,8.36,0,0,0-.64,3.17,3.33,3.33,0,0,0,.5,2,1.65,1.65,0,0,0,1.4.68,1.82,1.82,0,0,0,1-.24,2.35,2.35,0,0,0,.7-.8,11.47,11.47,0,0,0,.72-1.7,5.49,5.49,0,0,1,1.35-2.28,3,3,0,0,1,2-.68,2.53,2.53,0,0,1,2.1,1,4.14,4.14,0,0,1,.79,2.63,7.68,7.68,0,0,1-.63,3.13l-1.16-.41a7,7,0,0,0,.6-2.75,2.59,2.59,0,0,0-.46-1.65,1.48,1.48,0,0,0-1.25-.6,2,2,0,0,0-1,.22,2.08,2.08,0,0,0-.69.74,9.09,9.09,0,0,0-.7,1.59,6.29,6.29,0,0,1-1.38,2.47A2.68,2.68,0,0,1,553.27,256.52Z"/><path class="cls-1" d="M551.14,261.43a4.65,4.65,0,0,0,.05.66c0,.21.07.38.11.51h-1a2.15,2.15,0,0,1-.17-.62,5.37,5.37,0,0,1-.07-.74c0-1.66.88-2.49,2.62-2.49h5.09v-1.22h.63l.54,1.22,1.83.55v.75h-2v2.49h-1v-2.49h-5a1.7,1.7,0,0,0-1.19.37A1.26,1.26,0,0,0,551.14,261.43Z"/><path class="cls-2" d="M154.55,335.82h-1l-2.6-3.46-.75.66v2.8h-.83v-7.14h.83v3.54l3.24-3.54h1l-2.87,3.1Z"/><path class="cls-2" d="M155.35,329a.55.55,0,0,1,.13-.41.51.51,0,0,1,.34-.13.48.48,0,0,1,.34.14.52.52,0,0,1,.14.4.56.56,0,0,1-.14.41.51.51,0,0,1-.68,0A.56.56,0,0,1,155.35,329Zm.87,6.8h-.81v-5.35h.81Z"/><path class="cls-2" d="M161.6,335.82v-3.46a1.4,1.4,0,0,0-.29-1,1.24,1.24,0,0,0-.94-.32,1.52,1.52,0,0,0-1.23.46,2.27,2.27,0,0,0-.39,1.49v2.81h-.81v-5.35h.66l.13.73h0a1.74,1.74,0,0,1,.7-.61,2.33,2.33,0,0,1,1-.22,2,2,0,0,1,1.46.47,2,2,0,0,1,.49,1.49v3.49Z"/><path class="cls-2" d="M168.46,330.47V331l-1,.12a1.57,1.57,0,0,1,.24.45,1.52,1.52,0,0,1,.11.62,1.57,1.57,0,0,1-.54,1.25,2.11,2.11,0,0,1-1.47.47,2.15,2.15,0,0,1-.45,0,.81.81,0,0,0-.52.69.35.35,0,0,0,.18.33,1.34,1.34,0,0,0,.62.1h1a2.12,2.12,0,0,1,1.34.37,1.26,1.26,0,0,1,.46,1.06,1.53,1.53,0,0,1-.71,1.36,3.84,3.84,0,0,1-2.08.46,2.85,2.85,0,0,1-1.62-.39,1.25,1.25,0,0,1-.57-1.1,1.26,1.26,0,0,1,.31-.84,1.65,1.65,0,0,1,.88-.49.83.83,0,0,1-.48-.74.8.8,0,0,1,.16-.51,1.52,1.52,0,0,1,.49-.43,1.46,1.46,0,0,1-.68-.58,1.72,1.72,0,0,1-.26-.94,1.74,1.74,0,0,1,.53-1.35,2.14,2.14,0,0,1,1.49-.48,2.91,2.91,0,0,1,.76.1Zm-4.27,6.25a.72.72,0,0,0,.37.66,2,2,0,0,0,1.05.22,3,3,0,0,0,1.51-.3.93.93,0,0,0,.49-.83.65.65,0,0,0-.27-.6,2.09,2.09,0,0,0-1-.17h-1a1.32,1.32,0,0,0-.86.26A1,1,0,0,0,164.19,336.72Zm.44-4.54a1.09,1.09,0,0,0,.32.85,1.23,1.23,0,0,0,.88.29,1,1,0,0,0,1.19-1.15,1.07,1.07,0,0,0-1.2-1.21,1.08,1.08,0,0,0-1.19,1.22Z"/><path class="cls-2" d="M176.31,333.92a1.74,1.74,0,0,1-.69,1.47,3,3,0,0,1-1.85.53,4.65,4.65,0,0,1-2-.33v-.8a4.87,4.87,0,0,0,1,.29,4.57,4.57,0,0,0,1,.11,2.08,2.08,0,0,0,1.25-.31,1,1,0,0,0,.42-.88,1.13,1.13,0,0,0-.15-.61,1.46,1.46,0,0,0-.5-.43,6.41,6.41,0,0,0-1.06-.46,3.5,3.5,0,0,1-1.43-.84,1.9,1.9,0,0,1-.42-1.28,1.57,1.57,0,0,1,.62-1.31,2.54,2.54,0,0,1,1.64-.49,4.86,4.86,0,0,1,2,.39l-.26.72a4.56,4.56,0,0,0-1.72-.37,1.66,1.66,0,0,0-1,.29.92.92,0,0,0-.37.78,1.23,1.23,0,0,0,.13.61,1.44,1.44,0,0,0,.47.44,5.57,5.57,0,0,0,1,.43,4,4,0,0,1,1.54.86A1.66,1.66,0,0,1,176.31,333.92Z"/><path class="cls-2" d="M179.37,335.25a2.77,2.77,0,0,0,.42,0,1.73,1.73,0,0,0,.32-.07v.62a1.32,1.32,0,0,1-.39.11,2.68,2.68,0,0,1-.46,0c-1,0-1.56-.55-1.56-1.64V331.1h-.76v-.39l.76-.34.35-1.14h.46v1.24h1.56v.63h-1.56v3.15a1.09,1.09,0,0,0,.23.74A.83.83,0,0,0,179.37,335.25Z"/><path class="cls-2" d="M190.13,335.82h-.82L187.86,331c-.06-.21-.14-.48-.22-.8a5.54,5.54,0,0,1-.14-.58,10.19,10.19,0,0,1-.34,1.41l-1.39,4.75h-.83l-1.89-7.14h.87l1.13,4.41a15.16,15.16,0,0,1,.34,1.68,13,13,0,0,1,.39-1.75l1.28-4.34h.88l1.35,4.38a15.59,15.59,0,0,1,.39,1.71,15.11,15.11,0,0,1,.35-1.69l1.13-4.4H192Z"/><path class="cls-2" d="M195.29,335.92a2.46,2.46,0,0,1-1.87-.72,2.79,2.79,0,0,1-.69-2,3.15,3.15,0,0,1,.64-2.06,2.14,2.14,0,0,1,1.71-.76,2,2,0,0,1,1.59.67,2.53,2.53,0,0,1,.59,1.74v.51h-3.69a2.13,2.13,0,0,0,.48,1.43,1.62,1.62,0,0,0,1.27.49,4.3,4.3,0,0,0,1.71-.36v.72a3.84,3.84,0,0,1-.81.27A5,5,0,0,1,195.29,335.92Zm-.22-4.87a1.33,1.33,0,0,0-1,.42,2,2,0,0,0-.45,1.16h2.8a1.76,1.76,0,0,0-.34-1.17A1.21,1.21,0,0,0,195.07,331.05Z"/><path class="cls-2" d="M202.09,334.36a1.32,1.32,0,0,1-.55,1.15,2.57,2.57,0,0,1-1.57.41,3.34,3.34,0,0,1-1.66-.34v-.75a4.57,4.57,0,0,0,.83.31,3.74,3.74,0,0,0,.85.11,2,2,0,0,0,1-.2.67.67,0,0,0,.34-.62.65.65,0,0,0-.27-.53,4,4,0,0,0-1.06-.53,6.26,6.26,0,0,1-1.06-.48,1.53,1.53,0,0,1-.47-.48,1.22,1.22,0,0,1-.15-.63,1.21,1.21,0,0,1,.53-1,2.5,2.5,0,0,1,1.46-.38,4.34,4.34,0,0,1,1.69.35l-.29.66a3.85,3.85,0,0,0-1.46-.33,1.71,1.71,0,0,0-.87.18.57.57,0,0,0-.29.5.65.65,0,0,0,.11.37,1,1,0,0,0,.35.28,6.76,6.76,0,0,0,.94.4,3.36,3.36,0,0,1,1.29.7A1.23,1.23,0,0,1,202.09,334.36Z"/><path class="cls-2" d="M205.14,335.25l.42,0a1.61,1.61,0,0,0,.31-.07v.62a1.23,1.23,0,0,1-.39.11,2.6,2.6,0,0,1-.46,0c-1,0-1.55-.55-1.55-1.64V331.1h-.77v-.39l.77-.34.34-1.14h.47v1.24h1.55v.63h-1.55v3.15a1.09,1.09,0,0,0,.23.74A.8.8,0,0,0,205.14,335.25Z"/><path class="cls-2" d="M153.89,346.82l-.89-2.27h-2.86l-.88,2.27h-.84l2.82-7.17h.7l2.8,7.17Zm-1.15-3-.83-2.21a9.77,9.77,0,0,1-.33-1c-.08.31-.18.66-.31,1l-.84,2.21Z"/><path class="cls-2" d="M157.33,346.25a2.86,2.86,0,0,0,.42,0,1.44,1.44,0,0,0,.31-.07v.62a1.16,1.16,0,0,1-.38.11,2.68,2.68,0,0,1-.46,0c-1,0-1.56-.55-1.56-1.64V342.1h-.76v-.39l.76-.34.34-1.14h.47v1.24H158v.63h-1.56v3.15a1.09,1.09,0,0,0,.23.74A.83.83,0,0,0,157.33,346.25Z"/><path class="cls-2" d="M166.38,341.76a2,2,0,0,1-.74,1.67,3.35,3.35,0,0,1-2.12.58h-.84v2.81h-.83v-7.14h1.85C165.49,339.68,166.38,340.38,166.38,341.76Zm-3.7,1.54h.75A2.85,2.85,0,0,0,165,343a1.32,1.32,0,0,0,.49-1.15,1.22,1.22,0,0,0-.46-1.05,2.44,2.44,0,0,0-1.45-.35h-.93Z"/><path class="cls-2" d="M172.37,344.14a3,3,0,0,1-.66,2.05,2.6,2.6,0,0,1-3.09.39,2.18,2.18,0,0,1-.86-1,3.4,3.4,0,0,1-.31-1.48,2.94,2.94,0,0,1,.66-2,2.33,2.33,0,0,1,1.82-.73,2.26,2.26,0,0,1,1.78.75A2.94,2.94,0,0,1,172.37,344.14Zm-4.08,0a2.53,2.53,0,0,0,.41,1.56,1.44,1.44,0,0,0,1.21.54,1.46,1.46,0,0,0,1.21-.53,2.58,2.58,0,0,0,.41-1.57,2.51,2.51,0,0,0-.41-1.55,1.46,1.46,0,0,0-1.22-.53,1.45,1.45,0,0,0-1.2.52A2.53,2.53,0,0,0,168.29,344.14Z"/><path class="cls-2" d="M176.23,341.37a3.1,3.1,0,0,1,.64.06l-.11.75a2.67,2.67,0,0,0-.58-.07,1.45,1.45,0,0,0-1.12.53,2,2,0,0,0-.46,1.31v2.87h-.81v-5.35h.67l.09,1h0a2.35,2.35,0,0,1,.72-.8A1.62,1.62,0,0,1,176.23,341.37Z"/><path class="cls-2" d="M179.6,346.25a2.86,2.86,0,0,0,.42,0,1.73,1.73,0,0,0,.32-.07v.62a1.32,1.32,0,0,1-.39.11,2.68,2.68,0,0,1-.46,0c-1,0-1.56-.55-1.56-1.64V342.1h-.76v-.39l.76-.34.34-1.14h.47v1.24h1.56v.63h-1.56v3.15a1.09,1.09,0,0,0,.23.74A.83.83,0,0,0,179.6,346.25Z"/><path class="cls-2" d="M182.21,344.08a8.36,8.36,0,0,1,.64-.78l1.72-1.83h1l-2.17,2.28,2.32,3.07h-1l-1.89-2.53-.61.53v2h-.81v-7.6h.81v4c0,.18,0,.46,0,.83Z"/><path class="cls-2" d="M189.94,346.82l-.16-.76h0a2.18,2.18,0,0,1-.79.68,2.45,2.45,0,0,1-1,.18,1.78,1.78,0,0,1-1.24-.41,1.47,1.47,0,0,1-.46-1.17c0-1.08.87-1.64,2.6-1.7l.9,0v-.33a1.36,1.36,0,0,0-.27-.93,1.11,1.11,0,0,0-.86-.3,3.62,3.62,0,0,0-1.52.41l-.25-.62a4.77,4.77,0,0,1,.87-.34,3.81,3.81,0,0,1,.95-.12,2,2,0,0,1,1.41.43,1.75,1.75,0,0,1,.47,1.36v3.65Zm-1.83-.57a1.67,1.67,0,0,0,1.19-.41,1.55,1.55,0,0,0,.43-1.17v-.48l-.81,0a3,3,0,0,0-1.39.31.9.9,0,0,0-.43.82.82.82,0,0,0,.27.67A1.11,1.11,0,0,0,188.11,346.25Z"/><path class="cls-2" d="M194.71,341.38a2,2,0,0,1,1.63.72,3.16,3.16,0,0,1,.59,2,3.21,3.21,0,0,1-.59,2.05,2,2,0,0,1-1.63.73,2.32,2.32,0,0,1-1-.19,1.74,1.74,0,0,1-.72-.6H193l-.17.69h-.58v-7.6H193v1.85c0,.41,0,.79,0,1.11h0A1.91,1.91,0,0,1,194.71,341.38Zm-.12.68a1.43,1.43,0,0,0-1.2.48,3.73,3.73,0,0,0,0,3.22,1.44,1.44,0,0,0,1.21.48,1.24,1.24,0,0,0,1.11-.54,2.78,2.78,0,0,0,.37-1.57,2.68,2.68,0,0,0-.37-1.56A1.29,1.29,0,0,0,194.59,342.06Z"/><path class="cls-2" d="M202,346.1h-.05a1.88,1.88,0,0,1-1.68.82,2,2,0,0,1-1.63-.72,3.9,3.9,0,0,1,0-4.09,2.16,2.16,0,0,1,3.3.05H202l0-.38,0-.38v-2.18h.81v7.6h-.66Zm-1.63.14a1.49,1.49,0,0,0,1.21-.45,2.28,2.28,0,0,0,.37-1.46v-.17a2.61,2.61,0,0,0-.38-1.62,1.41,1.41,0,0,0-1.21-.49,1.26,1.26,0,0,0-1.09.56,2.77,2.77,0,0,0-.37,1.56,2.67,2.67,0,0,0,.37,1.55A1.27,1.27,0,0,0,200.36,346.24Z"/><path class="cls-2" d="M193,367v-7.14h.83v6.39H197V367Z"/><path class="cls-2" d="M200.34,367.08a2.45,2.45,0,0,1-1.87-.72,2.79,2.79,0,0,1-.69-2,3.05,3.05,0,0,1,.64-2.05,2.1,2.1,0,0,1,1.71-.77,2,2,0,0,1,1.59.67,2.53,2.53,0,0,1,.59,1.74v.51h-3.69a2.13,2.13,0,0,0,.48,1.43,1.62,1.62,0,0,0,1.27.49,4.3,4.3,0,0,0,1.71-.36v.72a3.84,3.84,0,0,1-.81.27A5,5,0,0,1,200.34,367.08Zm-.22-4.87a1.33,1.33,0,0,0-1,.42,2,2,0,0,0-.45,1.16h2.8a1.81,1.81,0,0,0-.34-1.17A1.22,1.22,0,0,0,200.12,362.21Z"/><path class="cls-2" d="M206,367.08a2.46,2.46,0,0,1-1.87-.72,2.79,2.79,0,0,1-.69-2,3.05,3.05,0,0,1,.64-2.05,2.1,2.1,0,0,1,1.71-.77,2,2,0,0,1,1.59.67,2.53,2.53,0,0,1,.59,1.74v.51h-3.69a2.13,2.13,0,0,0,.48,1.43,1.62,1.62,0,0,0,1.27.49,4.3,4.3,0,0,0,1.71-.36v.72a3.84,3.84,0,0,1-.81.27A5,5,0,0,1,206,367.08Zm-.22-4.87a1.33,1.33,0,0,0-1,.42,2,2,0,0,0-.45,1.16h2.8a1.76,1.76,0,0,0-.34-1.17A1.22,1.22,0,0,0,205.73,362.21Z"/><path class="cls-2" d="M216.1,359.84H217L214.42,367h-.82L211,359.84h.88l1.64,4.62A13.22,13.22,0,0,1,214,366a11.76,11.76,0,0,1,.46-1.58Z"/><path class="cls-2" d="M221.14,367l-.16-.76h0a2.2,2.2,0,0,1-.8.68,2.37,2.37,0,0,1-1,.18,1.81,1.81,0,0,1-1.25-.41,1.49,1.49,0,0,1-.45-1.17c0-1.08.86-1.64,2.59-1.7l.91,0v-.34a1.36,1.36,0,0,0-.27-.93,1.12,1.12,0,0,0-.87-.3,3.58,3.58,0,0,0-1.51.41l-.25-.62a3.74,3.74,0,0,1,.87-.33,3.38,3.38,0,0,1,.94-.13,2.06,2.06,0,0,1,1.42.43,1.76,1.76,0,0,1,.46,1.36V367Zm-1.83-.57a1.69,1.69,0,0,0,1.19-.41,1.55,1.55,0,0,0,.43-1.17v-.48l-.81,0a2.87,2.87,0,0,0-1.39.3.88.88,0,0,0-.43.82.84.84,0,0,0,.26.67A1.09,1.09,0,0,0,219.31,366.41Z"/><path class="cls-2" d="M224.22,367h-.81v-7.59h.81Z"/><path class="cls-2" d="M226.75,367h-.81v-7.59h.81Z"/><path class="cls-2" d="M230.73,367.08a2.46,2.46,0,0,1-1.87-.72,2.79,2.79,0,0,1-.69-2,3.05,3.05,0,0,1,.64-2.05,2.1,2.1,0,0,1,1.71-.77,2,2,0,0,1,1.59.67,2.53,2.53,0,0,1,.59,1.74v.51H229a2.13,2.13,0,0,0,.48,1.43,1.62,1.62,0,0,0,1.27.49,4.3,4.3,0,0,0,1.71-.36v.72a3.84,3.84,0,0,1-.81.27A5,5,0,0,1,230.73,367.08Zm-.22-4.87a1.33,1.33,0,0,0-1,.42,2,2,0,0,0-.45,1.16h2.8a1.76,1.76,0,0,0-.34-1.17A1.22,1.22,0,0,0,230.51,362.21Z"/><path class="cls-2" d="M233.23,361.63h.87l1.17,3.05a11.08,11.08,0,0,1,.48,1.51h0c0-.16.13-.45.27-.85s.57-1.64,1.32-3.71h.87l-2.3,6.1a3.06,3.06,0,0,1-.8,1.28,1.71,1.71,0,0,1-1.12.38,3,3,0,0,1-.73-.09v-.65a2.77,2.77,0,0,0,.6.06,1.23,1.23,0,0,0,1.19-.94l.3-.76Z"/><path class="cls-2" d="M340.62,328h-.82l-1.44-4.78c-.07-.21-.14-.48-.23-.8a4.49,4.49,0,0,1-.13-.58,11.86,11.86,0,0,1-.34,1.41l-1.4,4.75h-.82l-1.9-7.14h.88l1.13,4.41a15.16,15.16,0,0,1,.34,1.68,12.54,12.54,0,0,1,.39-1.74l1.28-4.35h.88l1.34,4.38a13.51,13.51,0,0,1,.4,1.71,15.11,15.11,0,0,1,.35-1.69l1.12-4.4h.88Z"/><path class="cls-2" d="M343.46,321.22a.53.53,0,0,1,.14-.41.49.49,0,0,1,.34-.13.45.45,0,0,1,.33.14.49.49,0,0,1,.15.4.53.53,0,0,1-.15.41.44.44,0,0,1-.33.13.45.45,0,0,1-.34-.13A.53.53,0,0,1,343.46,321.22Zm.88,6.8h-.81v-5.35h.81Z"/><path class="cls-2" d="M346.87,328h-.81v-7.59h.81Z"/><path class="cls-2" d="M351.08,322.58a2,2,0,0,1,1.63.72,3.16,3.16,0,0,1,.59,2,3.21,3.21,0,0,1-.59,2.05,2,2,0,0,1-1.63.73,2.32,2.32,0,0,1-1-.19,1.74,1.74,0,0,1-.72-.6h-.06l-.17.69h-.58v-7.59h.81v1.84c0,.41,0,.79,0,1.11h0A1.91,1.91,0,0,1,351.08,322.58Zm-.12.68a1.43,1.43,0,0,0-1.2.48,3.73,3.73,0,0,0,0,3.22,1.45,1.45,0,0,0,1.21.48,1.24,1.24,0,0,0,1.11-.54,2.76,2.76,0,0,0,.37-1.57,2.63,2.63,0,0,0-.37-1.55A1.27,1.27,0,0,0,351,323.26Z"/><path class="cls-2" d="M355.48,322.67v3.47a1.43,1.43,0,0,0,.29,1,1.24,1.24,0,0,0,.94.32,1.48,1.48,0,0,0,1.22-.46,2.29,2.29,0,0,0,.39-1.5v-2.81h.81V328h-.67l-.11-.71h-.05a1.56,1.56,0,0,1-.69.6,2.31,2.31,0,0,1-1,.21,2,2,0,0,1-1.46-.46,2,2,0,0,1-.48-1.49v-3.5Z"/><path class="cls-2" d="M363.29,322.57a3.1,3.1,0,0,1,.64.06l-.11.75a3.47,3.47,0,0,0-.59-.07,1.44,1.44,0,0,0-1.11.53,2,2,0,0,0-.46,1.31V328h-.81v-5.35h.67l.09,1h0a2.35,2.35,0,0,1,.72-.8A1.62,1.62,0,0,1,363.29,322.57Z"/><path class="cls-2" d="M337.55,339l-2.42-6.32h0c.05.5.07,1.09.07,1.78V339h-.77v-7.14h1.25l2.26,5.89h0l2.28-5.89h1.24V339h-.83v-4.6c0-.52,0-1.1.07-1.71h0L338.22,339Z"/><path class="cls-2" d="M345.56,339.12a2.45,2.45,0,0,1-1.87-.72,2.79,2.79,0,0,1-.69-2,3.05,3.05,0,0,1,.64-2.05,2.1,2.1,0,0,1,1.71-.77,2,2,0,0,1,1.59.67,2.53,2.53,0,0,1,.59,1.74v.51h-3.69a2.08,2.08,0,0,0,.48,1.43,1.62,1.62,0,0,0,1.27.49,4.38,4.38,0,0,0,1.71-.36v.72a3.73,3.73,0,0,1-.82.27A4.77,4.77,0,0,1,345.56,339.12Zm-.22-4.87a1.33,1.33,0,0,0-1,.42,2,2,0,0,0-.45,1.16h2.8a1.81,1.81,0,0,0-.34-1.17A1.22,1.22,0,0,0,345.34,334.25Z"/><path class="cls-2" d="M350.2,336.28l-1.86-2.61h.92l1.41,2.05,1.41-2.05H353l-1.86,2.61,2,2.74h-.92l-1.5-2.16L349.16,339h-.92Z"/><path class="cls-2" d="M354.08,332.22a.56.56,0,0,1,.14-.41.49.49,0,0,1,.34-.13.45.45,0,0,1,.33.14.49.49,0,0,1,.15.4.53.53,0,0,1-.15.41.44.44,0,0,1-.33.13.45.45,0,0,1-.34-.13A.56.56,0,0,1,354.08,332.22ZM355,339h-.81v-5.35H355Z"/><path class="cls-2" d="M358.82,339.12a2.29,2.29,0,0,1-1.8-.71,3.58,3.58,0,0,1,0-4.1,2.32,2.32,0,0,1,1.84-.74,3.37,3.37,0,0,1,.77.09,2.6,2.6,0,0,1,.61.19l-.25.69a4.55,4.55,0,0,0-.59-.18,3.16,3.16,0,0,0-.56-.07c-1.09,0-1.63.7-1.63,2.08a2.48,2.48,0,0,0,.4,1.52,1.38,1.38,0,0,0,1.18.52,3.48,3.48,0,0,0,1.37-.29v.72A2.87,2.87,0,0,1,358.82,339.12Z"/><path class="cls-2" d="M364.73,339l-.16-.76h0a2.2,2.2,0,0,1-.8.68,2.43,2.43,0,0,1-1,.18,1.81,1.81,0,0,1-1.25-.41,1.49,1.49,0,0,1-.45-1.17c0-1.08.86-1.64,2.59-1.7l.91,0v-.34a1.36,1.36,0,0,0-.27-.93,1.12,1.12,0,0,0-.87-.3,3.58,3.58,0,0,0-1.51.41l-.25-.62a3.84,3.84,0,0,1,.86-.33,3.45,3.45,0,0,1,.95-.13,2.06,2.06,0,0,1,1.42.43,1.76,1.76,0,0,1,.46,1.36V339Zm-1.83-.57a1.69,1.69,0,0,0,1.19-.41,1.55,1.55,0,0,0,.43-1.17v-.48l-.81,0a2.91,2.91,0,0,0-1.4.3.89.89,0,0,0-.42.82.84.84,0,0,0,.26.67A1.14,1.14,0,0,0,362.9,338.45Z"/><path class="cls-2" d="M370.66,339v-3.46a1.4,1.4,0,0,0-.3-1,1.22,1.22,0,0,0-.93-.32,1.52,1.52,0,0,0-1.23.46,2.29,2.29,0,0,0-.39,1.5V339H367v-5.35h.66l.13.73h0a1.74,1.74,0,0,1,.7-.61,2.33,2.33,0,0,1,1-.22A2,2,0,0,1,371,334a2,2,0,0,1,.49,1.49V339Z"/><path class="cls-2" d="M376.43,339l-.16-.76h0a2.28,2.28,0,0,1-.8.68,2.43,2.43,0,0,1-1,.18,1.81,1.81,0,0,1-1.25-.41,1.49,1.49,0,0,1-.45-1.17c0-1.08.86-1.64,2.59-1.7l.91,0v-.34a1.36,1.36,0,0,0-.27-.93,1.12,1.12,0,0,0-.87-.3,3.54,3.54,0,0,0-1.51.41l-.25-.62a3.84,3.84,0,0,1,.86-.33,3.45,3.45,0,0,1,.95-.13,2.06,2.06,0,0,1,1.42.43,1.76,1.76,0,0,1,.46,1.36V339Zm-1.83-.57a1.69,1.69,0,0,0,1.19-.41,1.59,1.59,0,0,0,.43-1.17v-.48l-.81,0a2.91,2.91,0,0,0-1.4.3.89.89,0,0,0-.42.82.81.81,0,0,0,.26.67A1.14,1.14,0,0,0,374.6,338.45Z"/><path class="cls-2" d="M229,425.68h-1l-2.6-3.46-.75.66v2.8h-.83v-7.14h.83v3.54l3.24-3.54h1l-2.87,3.1Z"/><path class="cls-2" d="M229.74,418.88a.55.55,0,0,1,.14-.41.49.49,0,0,1,.34-.13.53.53,0,0,1,.34.13.67.67,0,0,1,0,.82.48.48,0,0,1-.34.13.45.45,0,0,1-.34-.13A.56.56,0,0,1,229.74,418.88Zm.88,6.8h-.81v-5.35h.81Z"/><path class="cls-2" d="M236,425.68v-3.46a1.4,1.4,0,0,0-.3-1,1.23,1.23,0,0,0-.93-.32,1.54,1.54,0,0,0-1.23.45,2.32,2.32,0,0,0-.39,1.5v2.81h-.81v-5.35H233l.13.73h0a1.61,1.61,0,0,1,.7-.61,2.19,2.19,0,0,1,1-.22,2,2,0,0,1,1.45.47,2,2,0,0,1,.49,1.49v3.49Z"/><path class="cls-2" d="M242.86,420.33v.51l-1,.12a1.57,1.57,0,0,1,.24.45,1.71,1.71,0,0,1,.11.62,1.57,1.57,0,0,1-.54,1.25,2.13,2.13,0,0,1-1.47.47,2.15,2.15,0,0,1-.45,0c-.35.19-.52.41-.52.69a.35.35,0,0,0,.18.33,1.34,1.34,0,0,0,.62.1h1a2.07,2.07,0,0,1,1.33.37,1.27,1.27,0,0,1,.47,1.06,1.53,1.53,0,0,1-.71,1.36,3.84,3.84,0,0,1-2.08.46,2.85,2.85,0,0,1-1.62-.39,1.26,1.26,0,0,1-.57-1.1,1.2,1.2,0,0,1,.31-.84,1.62,1.62,0,0,1,.88-.49.88.88,0,0,1-.35-.29.77.77,0,0,1-.13-.45.85.85,0,0,1,.15-.51,1.69,1.69,0,0,1,.5-.43,1.41,1.41,0,0,1-.68-.58,1.66,1.66,0,0,1-.26-.94,1.73,1.73,0,0,1,.52-1.35,2.16,2.16,0,0,1,1.5-.48,3,3,0,0,1,.76.1Zm-4.27,6.25a.72.72,0,0,0,.37.66,2,2,0,0,0,1,.22,3,3,0,0,0,1.52-.3,1,1,0,0,0,.49-.83.65.65,0,0,0-.27-.6,2.12,2.12,0,0,0-1-.17h-1a1.3,1.3,0,0,0-.86.26A.94.94,0,0,0,238.59,426.58ZM239,422a1.05,1.05,0,0,0,.32.85,1.22,1.22,0,0,0,.88.29,1,1,0,0,0,1.19-1.15,1.07,1.07,0,0,0-1.21-1.21,1.18,1.18,0,0,0-.87.31A1.23,1.23,0,0,0,239,422Z"/><path class="cls-2" d="M250.7,423.78a1.73,1.73,0,0,1-.68,1.47,3,3,0,0,1-1.86.53,4.63,4.63,0,0,1-1.95-.33v-.8a4.49,4.49,0,0,0,1,.29,4.43,4.43,0,0,0,1,.11,2.06,2.06,0,0,0,1.25-.31,1,1,0,0,0,.42-.88,1.13,1.13,0,0,0-.15-.61,1.24,1.24,0,0,0-.49-.43,6.59,6.59,0,0,0-1.07-.46,3.52,3.52,0,0,1-1.42-.84,1.9,1.9,0,0,1-.43-1.28,1.58,1.58,0,0,1,.62-1.31,2.56,2.56,0,0,1,1.64-.49,4.83,4.83,0,0,1,2,.39l-.26.72a4.56,4.56,0,0,0-1.72-.37,1.68,1.68,0,0,0-1,.29.94.94,0,0,0-.37.78,1.22,1.22,0,0,0,.14.61,1.28,1.28,0,0,0,.46.43,5.25,5.25,0,0,0,1,.44,4.08,4.08,0,0,1,1.54.86A1.7,1.7,0,0,1,250.7,423.78Z"/><path class="cls-2" d="M253.77,425.11a2.73,2.73,0,0,0,.41,0,1.56,1.56,0,0,0,.32-.07v.62a1.32,1.32,0,0,1-.39.11,2.6,2.6,0,0,1-.46,0c-1,0-1.55-.55-1.55-1.64V421h-.77v-.39l.77-.34.34-1.14h.47v1.24h1.55V421h-1.55v3.15a1.09,1.09,0,0,0,.23.74A.8.8,0,0,0,253.77,425.11Z"/><path class="cls-2" d="M264.52,425.68h-.82l-1.44-4.78c-.07-.21-.14-.48-.23-.8a4.91,4.91,0,0,1-.13-.58,11.86,11.86,0,0,1-.34,1.41l-1.4,4.75h-.82l-1.9-7.14h.88l1.13,4.41c.15.62.27,1.18.34,1.68a13,13,0,0,1,.39-1.75l1.28-4.34h.88l1.34,4.38a13.51,13.51,0,0,1,.4,1.71,15.11,15.11,0,0,1,.35-1.69l1.12-4.4h.88Z"/><path class="cls-2" d="M269.69,425.78a2.49,2.49,0,0,1-1.88-.72,2.84,2.84,0,0,1-.68-2,3.1,3.1,0,0,1,.64-2.06,2.12,2.12,0,0,1,1.71-.76,2,2,0,0,1,1.59.66,2.56,2.56,0,0,1,.59,1.75v.51H268a2.08,2.08,0,0,0,.47,1.43,1.66,1.66,0,0,0,1.28.49,4.38,4.38,0,0,0,1.71-.36v.72a4.35,4.35,0,0,1-.82.27A4.77,4.77,0,0,1,269.69,425.78Zm-.22-4.87a1.33,1.33,0,0,0-1,.42,1.88,1.88,0,0,0-.45,1.16h2.8a1.76,1.76,0,0,0-.35-1.17A1.19,1.19,0,0,0,269.47,420.91Z"/><path class="cls-2" d="M276.49,424.22a1.34,1.34,0,0,1-.56,1.15,2.61,2.61,0,0,1-1.56.41,3.34,3.34,0,0,1-1.66-.34v-.75a4.31,4.31,0,0,0,.83.31,3.67,3.67,0,0,0,.85.11,2,2,0,0,0,1-.2.69.69,0,0,0,.34-.62.65.65,0,0,0-.27-.53,4.2,4.2,0,0,0-1.06-.53,5.77,5.77,0,0,1-1.06-.49,1.32,1.32,0,0,1-.47-.47,1.22,1.22,0,0,1-.15-.63,1.19,1.19,0,0,1,.53-1,2.48,2.48,0,0,1,1.46-.38,4.37,4.37,0,0,1,1.69.35l-.29.66a3.94,3.94,0,0,0-1.46-.33,1.69,1.69,0,0,0-.87.18.55.55,0,0,0-.29.5.58.58,0,0,0,.11.37,1,1,0,0,0,.35.28,6.24,6.24,0,0,0,.94.4,3.38,3.38,0,0,1,1.28.7A1.2,1.2,0,0,1,276.49,424.22Z"/><path class="cls-2" d="M279.54,425.11a2.73,2.73,0,0,0,.41,0,1.73,1.73,0,0,0,.32-.07v.62a1.32,1.32,0,0,1-.39.11,2.6,2.6,0,0,1-.46,0c-1,0-1.55-.55-1.55-1.64V421h-.77v-.39l.77-.34.34-1.14h.47v1.24h1.55V421h-1.55v3.15a1,1,0,0,0,.23.74A.8.8,0,0,0,279.54,425.11Z"/><path class="cls-2" d="M288.54,425.68l-.88-2.27h-2.87l-.87,2.27h-.84l2.82-7.17h.7l2.8,7.17Zm-1.14-3-.83-2.21a9.77,9.77,0,0,1-.33-1c-.08.31-.18.66-.31,1l-.84,2.21Z"/><path class="cls-2" d="M292,425.11a2.86,2.86,0,0,0,.42,0,1.44,1.44,0,0,0,.31-.07v.62a1.16,1.16,0,0,1-.38.11,2.68,2.68,0,0,1-.46,0c-1,0-1.56-.55-1.56-1.64V421h-.76v-.39l.76-.34.34-1.14h.47v1.24h1.56V421h-1.56v3.15a1.09,1.09,0,0,0,.23.74A.83.83,0,0,0,292,425.11Z"/><path class="cls-2" d="M301,420.62a2,2,0,0,1-.74,1.67,3.35,3.35,0,0,1-2.12.58h-.84v2.81h-.83v-7.14h1.85C300.15,418.54,301,419.24,301,420.62Zm-3.7,1.54h.75a2.76,2.76,0,0,0,1.6-.36,1.29,1.29,0,0,0,.49-1.14,1.22,1.22,0,0,0-.46-1.05,2.44,2.44,0,0,0-1.45-.35h-.93Z"/><path class="cls-2" d="M307,423a2.94,2.94,0,0,1-.66,2,2.32,2.32,0,0,1-1.82.74,2.34,2.34,0,0,1-1.27-.34,2.18,2.18,0,0,1-.86-1,3.29,3.29,0,0,1-.31-1.48,2.94,2.94,0,0,1,.66-2,2.33,2.33,0,0,1,1.81-.73,2.27,2.27,0,0,1,1.79.75A2.94,2.94,0,0,1,307,423ZM303,423a2.55,2.55,0,0,0,.41,1.56,1.44,1.44,0,0,0,1.21.54,1.46,1.46,0,0,0,1.21-.53,2.58,2.58,0,0,0,.41-1.57,2.51,2.51,0,0,0-.41-1.55,1.46,1.46,0,0,0-1.22-.53,1.45,1.45,0,0,0-1.2.52A2.53,2.53,0,0,0,303,423Z"/><path class="cls-2" d="M310.89,420.23a3.1,3.1,0,0,1,.64.06l-.11.75a2.68,2.68,0,0,0-.59-.07,1.44,1.44,0,0,0-1.11.53,2,2,0,0,0-.46,1.31v2.87h-.81v-5.35h.67l.09,1h0a2.35,2.35,0,0,1,.72-.8A1.62,1.62,0,0,1,310.89,420.23Z"/><path class="cls-2" d="M314.26,425.11a2.86,2.86,0,0,0,.42,0A1.73,1.73,0,0,0,315,425v.62a1.32,1.32,0,0,1-.39.11,2.68,2.68,0,0,1-.46,0c-1,0-1.56-.55-1.56-1.64V421h-.76v-.39l.76-.34.34-1.14h.47v1.24H315V421H313.4v3.15a1.09,1.09,0,0,0,.23.74A.83.83,0,0,0,314.26,425.11Z"/><path class="cls-2" d="M315.62,423.37v-.74H318v.74Z"/><path class="cls-2" d="M224.48,436.68h-.81v-7.6h.81Z"/><path class="cls-2" d="M229.49,436.68l-.16-.76h0a2.2,2.2,0,0,1-.8.68,2.37,2.37,0,0,1-1,.18,1.81,1.81,0,0,1-1.25-.41,1.49,1.49,0,0,1-.45-1.17c0-1.08.87-1.65,2.59-1.7l.91,0v-.33a1.36,1.36,0,0,0-.27-.93,1.12,1.12,0,0,0-.87-.3,3.58,3.58,0,0,0-1.51.41l-.25-.62a4.5,4.5,0,0,1,.87-.34,3.79,3.79,0,0,1,.94-.12,2,2,0,0,1,1.42.43,1.75,1.75,0,0,1,.46,1.36v3.65Zm-1.83-.57a1.67,1.67,0,0,0,1.19-.41,1.55,1.55,0,0,0,.43-1.17v-.48l-.81,0a3.12,3.12,0,0,0-1.39.3.91.91,0,0,0-.43.83.83.83,0,0,0,.27.67A1.09,1.09,0,0,0,227.66,436.11Z"/><path class="cls-2" d="M235.42,436.68v-3.46a1.4,1.4,0,0,0-.29-1,1.24,1.24,0,0,0-.94-.32,1.54,1.54,0,0,0-1.23.45,2.32,2.32,0,0,0-.39,1.5v2.81h-.81v-5.35h.66l.13.73h0a1.67,1.67,0,0,1,.7-.61,2.19,2.19,0,0,1,1-.22,2,2,0,0,1,1.46.47,2,2,0,0,1,.49,1.49v3.49Z"/><path class="cls-2" d="M241.54,436h0a1.91,1.91,0,0,1-1.68.82,2,2,0,0,1-1.63-.72,3.16,3.16,0,0,1-.59-2,3.24,3.24,0,0,1,.59-2.06,2,2,0,0,1,1.63-.73,2,2,0,0,1,1.67.79h.06l0-.38,0-.38v-2.18h.81v7.6h-.66Zm-1.62.14a1.49,1.49,0,0,0,1.21-.45,2.35,2.35,0,0,0,.37-1.46V434a2.68,2.68,0,0,0-.38-1.62,1.41,1.41,0,0,0-1.21-.49,1.26,1.26,0,0,0-1.09.55,2.8,2.8,0,0,0-.38,1.57,2.66,2.66,0,0,0,.38,1.55A1.27,1.27,0,0,0,239.92,436.1Z"/><path class="cls-2" d="M250.78,434.78a1.74,1.74,0,0,1-.69,1.47,3,3,0,0,1-1.85.53,4.65,4.65,0,0,1-2-.33v-.8a4.87,4.87,0,0,0,1,.29,4.57,4.57,0,0,0,1,.11,2.08,2.08,0,0,0,1.25-.31,1,1,0,0,0,.42-.88,1.13,1.13,0,0,0-.15-.61,1.36,1.36,0,0,0-.5-.43,6.41,6.41,0,0,0-1.06-.46,3.5,3.5,0,0,1-1.43-.84,1.9,1.9,0,0,1-.42-1.28,1.55,1.55,0,0,1,.62-1.31,2.54,2.54,0,0,1,1.64-.49,4.86,4.86,0,0,1,2,.39l-.26.72a4.6,4.6,0,0,0-1.72-.37,1.66,1.66,0,0,0-1,.29.91.91,0,0,0-.37.78,1.23,1.23,0,0,0,.13.61,1.28,1.28,0,0,0,.46.43,5.25,5.25,0,0,0,1,.44,4,4,0,0,1,1.54.86A1.66,1.66,0,0,1,250.78,434.78Z"/><path class="cls-2" d="M253.84,436.11a2.86,2.86,0,0,0,.42,0,1.73,1.73,0,0,0,.32-.07v.62a1.32,1.32,0,0,1-.39.11,2.68,2.68,0,0,1-.46,0c-1,0-1.56-.55-1.56-1.64V432h-.76v-.39l.76-.34.34-1.14H253v1.24h1.56V432H253v3.15a1.09,1.09,0,0,0,.23.74A.83.83,0,0,0,253.84,436.11Z"/><path class="cls-2" d="M262.34,436.68h-4v-7.14h4v.74h-3.15v2.3h3v.73h-3v2.63h3.15Z"/><path class="cls-2" d="M267.09,436.68l-.16-.76h0a2.18,2.18,0,0,1-.79.68,2.45,2.45,0,0,1-1,.18,1.83,1.83,0,0,1-1.25-.41,1.49,1.49,0,0,1-.45-1.17c0-1.08.87-1.65,2.6-1.7l.9,0v-.33a1.36,1.36,0,0,0-.27-.93,1.11,1.11,0,0,0-.86-.3,3.62,3.62,0,0,0-1.52.41l-.25-.62a4.77,4.77,0,0,1,.87-.34,3.81,3.81,0,0,1,.95-.12,2,2,0,0,1,1.41.43,1.75,1.75,0,0,1,.47,1.36v3.65Zm-1.83-.57a1.67,1.67,0,0,0,1.19-.41,1.55,1.55,0,0,0,.43-1.17v-.48l-.81,0a3.12,3.12,0,0,0-1.39.3.93.93,0,0,0-.43.83.83.83,0,0,0,.27.67A1.11,1.11,0,0,0,265.26,436.11Z"/><path class="cls-2" d="M272.82,435.22a1.34,1.34,0,0,1-.56,1.15,2.61,2.61,0,0,1-1.56.41,3.34,3.34,0,0,1-1.66-.34v-.75a4.31,4.31,0,0,0,.83.31,3.61,3.61,0,0,0,.85.11,2,2,0,0,0,1-.2.68.68,0,0,0,.35-.62.65.65,0,0,0-.27-.53,4.39,4.39,0,0,0-1.06-.53,5.77,5.77,0,0,1-1.06-.49,1.32,1.32,0,0,1-.47-.47,1.14,1.14,0,0,1-.16-.63,1.2,1.2,0,0,1,.54-1,2.48,2.48,0,0,1,1.46-.38,4.41,4.41,0,0,1,1.69.35l-.29.66a3.94,3.94,0,0,0-1.46-.33,1.66,1.66,0,0,0-.87.18.56.56,0,0,0-.3.5.65.65,0,0,0,.11.37,1.22,1.22,0,0,0,.36.28,5.8,5.8,0,0,0,.94.4,3.38,3.38,0,0,1,1.28.7A1.2,1.2,0,0,1,272.82,435.22Z"/><path class="cls-2" d="M275.86,436.11a2.77,2.77,0,0,0,.42,0,1.73,1.73,0,0,0,.32-.07v.62a1.32,1.32,0,0,1-.39.11,2.68,2.68,0,0,1-.46,0c-1,0-1.56-.55-1.56-1.64V432h-.76v-.39l.76-.34.35-1.14H275v1.24h1.56V432H275v3.15a1.09,1.09,0,0,0,.23.74A.83.83,0,0,0,275.86,436.11Z"/><path class="cls-2" d="M284.41,434.78a1.73,1.73,0,0,1-.68,1.47,3,3,0,0,1-1.85.53,4.65,4.65,0,0,1-2-.33v-.8a5.46,5.46,0,0,0,2,.4,2.06,2.06,0,0,0,1.25-.31,1,1,0,0,0,.42-.88,1.22,1.22,0,0,0-.14-.61,1.36,1.36,0,0,0-.5-.43,6.82,6.82,0,0,0-1.06-.46,3.5,3.5,0,0,1-1.43-.84,1.9,1.9,0,0,1-.43-1.28,1.58,1.58,0,0,1,.62-1.31,2.59,2.59,0,0,1,1.65-.49,4.82,4.82,0,0,1,2,.39l-.26.72a4.51,4.51,0,0,0-1.71-.37,1.64,1.64,0,0,0-1,.29.92.92,0,0,0-.38.78,1.22,1.22,0,0,0,.14.61,1.28,1.28,0,0,0,.46.43,5.25,5.25,0,0,0,1,.44,4.08,4.08,0,0,1,1.54.86A1.7,1.7,0,0,1,284.41,434.78Z"/><path class="cls-2" d="M285.68,429.88a.55.55,0,0,1,.14-.41.51.51,0,0,1,.34-.13.53.53,0,0,1,.34.13.67.67,0,0,1,0,.82.48.48,0,0,1-.34.13.47.47,0,0,1-.34-.13A.56.56,0,0,1,285.68,429.88Zm.88,6.8h-.81v-5.35h.81Z"/><path class="cls-2" d="M291.92,436h0a1.88,1.88,0,0,1-1.68.82,2,2,0,0,1-1.63-.72,3.16,3.16,0,0,1-.59-2,3.24,3.24,0,0,1,.59-2.06,2,2,0,0,1,1.63-.73,2,2,0,0,1,1.67.79h.06l0-.38,0-.38v-2.18h.81v7.6H292Zm-1.62.14a1.49,1.49,0,0,0,1.21-.45,2.28,2.28,0,0,0,.37-1.46V434a2.68,2.68,0,0,0-.38-1.62,1.41,1.41,0,0,0-1.21-.49,1.26,1.26,0,0,0-1.09.55,2.8,2.8,0,0,0-.38,1.57,2.66,2.66,0,0,0,.38,1.55A1.27,1.27,0,0,0,290.3,436.1Z"/><path class="cls-2" d="M296.67,436.78a2.45,2.45,0,0,1-1.87-.72,2.8,2.8,0,0,1-.69-2,3.1,3.1,0,0,1,.64-2.06,2.12,2.12,0,0,1,1.71-.76,2,2,0,0,1,1.59.66,2.56,2.56,0,0,1,.59,1.75v.51H295a2.13,2.13,0,0,0,.48,1.43,1.62,1.62,0,0,0,1.27.49,4.3,4.3,0,0,0,1.71-.36v.72a4.52,4.52,0,0,1-.81.27A5,5,0,0,1,296.67,436.78Zm-.22-4.87a1.33,1.33,0,0,0-1,.42,2,2,0,0,0-.45,1.16h2.8a1.81,1.81,0,0,0-.34-1.17A1.22,1.22,0,0,0,296.45,431.91Z"/></g></g></svg>