<?xml version="1.0" encoding="utf-8"?>
<!-- Generator: Adobe Illustrator 24.0.3, SVG Export Plug-In . SVG Version: 6.00 Build 0)  -->
<svg version="1.2" baseProfile="tiny" id="Layer_1" xmlns="http://www.w3.org/2000/svg" xmlns:xlink="http://www.w3.org/1999/xlink"
	 x="0px" y="0px" viewBox="0 0 662.5 100" xml:space="preserve">
<path d="M66.5,24.6V53c0,1.2,0,2.5-0.1,3.7c0,1.2-0.2,2.4-0.4,3.6c-0.2,1.2-0.5,2.4-0.9,3.6c-0.4,1.2-0.9,2.3-1.7,3.5
	c-1.4,2.2-3,3.9-5,5.1c-1.9,1.2-3.8,2.1-5.7,2.7s-3.6,1-5.1,1.1c-1.5,0.1-2.6,0.2-3.1,0.2c-1.9,0-3.9-0.2-6-0.7
	c-2.1-0.5-4-1.1-5.8-2.1c-2.4-1.2-4.3-2.7-5.7-4.4c-1.3-1.7-2.3-3.5-2.9-5.3c-0.6-1.9-1-3.8-1-5.7c-0.1-1.9-0.1-3.7-0.1-5.5V24.6
	h12.8v31.7c0,1.3,0,2.5,0.1,3.5c0.1,1.1,0.4,2,0.8,2.8c0.8,1.3,2,2.3,3.5,2.7c1.5,0.5,3.1,0.7,4.7,0.7c2.2,0,3.8-0.3,5-1
	c1.2-0.6,2-1.5,2.6-2.4c0.5-1,0.9-2.1,1-3.2c0.1-1.2,0.2-2.2,0.2-3.2V24.6H66.5z"/>
<path d="M79.5,24.6H92l11,18.7c1,1.8,1.9,3.3,2.6,4.5c0.7,1.2,1.3,2.4,1.9,3.4c0.6,1,1.1,2,1.6,2.9c0.5,0.9,1,2,1.6,3.1L110,24.6
	h12.2v50.8h-12.5l-9.5-16.1c-1.2-1.9-2.1-3.4-2.8-4.7c-0.7-1.3-1.4-2.4-2.1-3.5c-0.6-1.1-1.2-2.2-1.8-3.4c-0.6-1.2-1.3-2.6-2.2-4.3
	l0.4,32H79.5V24.6z"/>
<path d="M135.6,24.6h16.2c1.5,0,3.3,0,5.1,0.1c1.9,0.1,3.8,0.3,5.8,0.7c1.9,0.4,3.9,1,5.8,1.8s3.7,1.9,5.3,3.3
	c2.6,2.4,4.5,5.3,5.6,8.6c1.1,3.3,1.7,6.8,1.7,10.4c0,2.2-0.1,4.1-0.4,5.7c-0.3,1.6-0.6,3-0.9,4.1c-0.8,2.6-1.8,4.9-3,6.7
	c-1.2,1.8-2.6,3.3-4.1,4.5c-1.5,1.2-3.1,2.1-4.7,2.8c-1.6,0.7-3.2,1.2-4.7,1.5c-1.5,0.3-2.9,0.5-4.3,0.6c-1.3,0.1-2.4,0.1-3.3,0.1
	h-20V24.6z M148.4,35.3v29.9h3.9c1.7,0,3.5-0.2,5.4-0.4c1.9-0.2,3.6-0.8,5.2-1.8c1.6-1,2.9-2.5,4-4.5c1.1-2,1.6-4.8,1.6-8.5
	c0-1.8-0.2-3.5-0.5-5.3c-0.3-1.7-1-3.4-2.2-5c-0.9-1.2-1.8-2-2.8-2.7c-1-0.6-2.1-1.1-3.1-1.3c-1.1-0.3-2.2-0.4-3.2-0.5
	c-1.1,0-2.1-0.1-3.1-0.1H148.4z"/>
<path d="M191.8,24.6h37.6v9.9h-24.9v9.1h23.3v9.6h-23.3v12.2h27.1v9.9h-39.8V24.6z"/>
<path d="M280.8,24.6v9.8h-26.4V45h24.3v9.9h-24.3v20.5h-12.7V24.6H280.8z"/>
<path d="M303.1,24.6v50.8h-12.7V24.6H303.1z"/>
<path d="M316.5,24.6H329l11,18.7c1,1.8,1.9,3.3,2.6,4.5c0.7,1.2,1.3,2.4,1.9,3.4c0.6,1,1.1,2,1.6,2.9c0.5,0.9,1,2,1.6,3.1l-0.6-32.6
	h12.2v50.8h-12.5l-9.5-16.1c-1.2-1.9-2.1-3.4-2.8-4.7c-0.7-1.3-1.4-2.4-2.1-3.5c-0.6-1.1-1.2-2.2-1.8-3.4c-0.6-1.2-1.3-2.6-2.2-4.3
	l0.4,32h-12.2V24.6z"/>
<path d="M372.7,24.6h37.6v9.9h-24.9v9.1h23.3v9.6h-23.3v12.2h27.1v9.9h-39.8V24.6z"/>
<path d="M422.7,24.6h16.2c1.5,0,3.3,0,5.1,0.1c1.9,0.1,3.8,0.3,5.8,0.7c1.9,0.4,3.9,1,5.8,1.8s3.7,1.9,5.3,3.3
	c2.6,2.4,4.5,5.3,5.6,8.6c1.1,3.3,1.7,6.8,1.7,10.4c0,2.2-0.1,4.1-0.4,5.7c-0.3,1.6-0.6,3-0.9,4.1c-0.8,2.6-1.8,4.9-3,6.7
	c-1.2,1.8-2.6,3.3-4.1,4.5c-1.5,1.2-3.1,2.1-4.7,2.8c-1.6,0.7-3.2,1.2-4.7,1.5c-1.5,0.3-2.9,0.5-4.3,0.6c-1.3,0.1-2.4,0.1-3.3,0.1
	h-20V24.6z M435.6,35.3v29.9h3.9c1.7,0,3.5-0.2,5.4-0.4c1.9-0.2,3.6-0.8,5.2-1.8c1.6-1,2.9-2.5,4-4.5c1.1-2,1.6-4.8,1.6-8.5
	c0-1.8-0.2-3.5-0.5-5.3c-0.3-1.7-1-3.4-2.2-5c-0.9-1.2-1.8-2-2.8-2.7c-1-0.6-2.1-1.1-3.1-1.3c-1.1-0.3-2.2-0.4-3.2-0.5
	c-1.1,0-2.1-0.1-3.1-0.1H435.6z"/>
<path d="M480.3,27h11v11.7h7.3v6.8h-7.3v16.9c0,0.6,0,1.1,0,1.6s0.1,1,0.3,1.4c0.2,0.4,0.5,0.7,0.9,0.9c0.4,0.2,1,0.3,1.7,0.3l4-0.1
	v8.6c-1.2,0.2-2.2,0.3-3.1,0.4c-0.8,0.1-1.8,0.1-2.8,0.1c-1,0-1.9,0-2.9-0.1c-1,0-1.9-0.2-2.8-0.5c-0.9-0.3-1.7-0.6-2.6-1.1
	c-0.8-0.5-1.5-1.2-2.1-2c-0.8-1.1-1.2-2.3-1.4-3.7c-0.1-1.4-0.2-3-0.2-4.8V45.4h-5.5v-6.8h5.5V27z"/>
<path d="M537.7,65.9c-0.7,1-1.4,1.9-2.1,2.8c-0.7,0.9-1.5,1.8-2.5,2.8c-1.6,1.5-3.6,2.8-6,3.8c-2.4,1-5.1,1.5-8.1,1.5
	c-2.8,0-5.3-0.4-7.7-1.3s-4.3-2.1-6-3.8c-1.7-1.7-3-3.7-3.9-6.1c-0.9-2.4-1.4-5.2-1.4-8.2c0-2.3,0.3-4.6,0.9-7.1
	c0.6-2.4,1.7-4.7,3.2-6.7c1.5-2,3.5-3.7,5.9-5c2.5-1.3,5.6-2,9.3-2c0.6,0,1.4,0,2.4,0.1c1,0.1,2.1,0.3,3.4,0.6
	c1.3,0.4,2.6,0.9,3.9,1.6c1.3,0.7,2.6,1.7,3.8,3c1.2,1.3,2.1,2.7,2.8,4.2c0.7,1.5,1.2,3.1,1.6,4.6c0.4,1.5,0.6,3,0.7,4.4
	c0.1,1.4,0.2,2.6,0.2,3.7h-26.9c0,1.2,0.2,2.3,0.5,3.4c0.3,1.1,0.8,2.2,1.5,3c0.7,0.9,1.6,1.6,2.7,2.1c1.1,0.5,2.4,0.8,3.9,0.8
	c1.5,0,2.8-0.2,3.8-0.6c1.1-0.4,1.9-1,2.7-1.7c0.7-0.7,1.3-1.4,1.8-2.2c0.5-0.8,0.9-1.5,1.2-2.2L537.7,65.9z M526.6,52
	c-0.1-0.8-0.3-1.7-0.5-2.7c-0.2-1-0.8-1.8-1.6-2.7c-0.7-0.7-1.5-1.2-2.5-1.5c-1-0.4-1.9-0.5-2.9-0.5c-1.3,0-2.5,0.3-3.4,0.8
	c-0.9,0.5-1.7,1.1-2.2,1.7c-0.8,0.8-1.3,1.6-1.5,2.5c-0.3,0.8-0.5,1.7-0.7,2.5H526.6z"/>
<path d="M542.6,48.5c0.1-1.3,0.4-2.7,0.8-4.1c0.4-1.5,1.5-2.9,3.2-4.2c1.7-1.4,3.7-2.3,5.8-2.7c2.1-0.4,4.3-0.6,6.5-0.6
	c1.2,0,2.6,0.1,4.4,0.3c1.8,0.2,3.5,0.7,5.2,1.4c1.7,0.7,3.2,1.8,4.4,3.2c1.2,1.4,1.8,3.3,1.8,5.8v21.9c0,1,0,1.8,0,2.4
	c0,0.6,0.1,1.1,0.2,1.5c0.1,0.4,0.2,0.7,0.3,1c0.1,0.3,0.3,0.6,0.5,0.9h-10.9V72c-0.7,0.5-1.5,1.1-2.2,1.6c-0.8,0.5-1.6,1-2.5,1.4
	c-0.9,0.4-1.9,0.8-3,1c-1.1,0.3-2.4,0.4-3.7,0.4c-2.2,0-4-0.3-5.6-1c-1.6-0.7-2.8-1.6-3.8-2.7c-1-1.1-1.7-2.3-2.2-3.7
	c-0.5-1.4-0.7-2.7-0.7-4c0-1.5,0.3-2.8,0.8-4c0.5-1.2,1.2-2.2,2-3.1c0.8-0.9,1.7-1.6,2.6-2.2c0.9-0.6,1.8-1.1,2.6-1.4
	c0.8-0.3,1.8-0.7,3-1c1.2-0.3,2.5-0.6,3.9-0.9c1.4-0.3,2.8-0.6,4.2-0.8c1.4-0.3,2.7-0.5,3.9-0.8v-2c0-0.4-0.1-0.9-0.2-1.4
	c-0.1-0.5-0.2-1-0.5-1.5c-0.3-0.5-0.7-0.9-1.2-1.2c-0.6-0.3-1.3-0.5-2.3-0.5c-1.2,0-2.2,0.2-3,0.5c-0.7,0.3-1.3,0.7-1.7,1.2
	c-0.4,0.5-0.7,0.9-0.9,1.4c-0.2,0.5-0.3,0.9-0.3,1.3H542.6z M556.7,59.8c-0.5,0.2-1,0.4-1.5,0.6c-0.6,0.2-1.1,0.5-1.5,0.9
	c-0.5,0.4-0.9,0.8-1.2,1.3c-0.3,0.5-0.5,1.1-0.5,1.8c0,0.9,0.4,1.8,1.1,2.6c0.7,0.8,1.8,1.2,3.1,1.2c0.7,0,1.3-0.1,2-0.3
	c0.6-0.2,1.3-0.5,1.8-0.9c0.9-0.6,1.6-1.2,2.1-1.9s0.9-1.5,1.2-2.3c0.3-0.8,0.4-1.7,0.5-2.6c0.1-0.9,0.1-1.8,0.1-2.8L556.7,59.8z"/>
<path d="M593.8,41.8c0.3-0.4,0.8-0.9,1.3-1.4c0.5-0.6,1.2-1.1,2.1-1.6c0.9-0.5,1.9-1,3.1-1.3c1.2-0.4,2.6-0.5,4.2-0.5
	c1.5,0,2.9,0.1,4,0.4c1.1,0.3,2.1,0.6,2.8,1c0.8,0.4,1.5,0.9,2,1.4c0.6,0.5,1.1,1.1,1.6,1.6c0.5-0.4,1.1-0.9,1.8-1.4
	c0.7-0.5,1.5-1,2.3-1.4c0.9-0.4,1.9-0.8,3.1-1.1c1.2-0.3,2.5-0.4,4-0.4c1.5,0,2.9,0.2,4.1,0.5c1.2,0.3,2.2,0.8,3.1,1.3
	c0.9,0.6,1.6,1.1,2.1,1.8c0.6,0.6,1,1.2,1.3,1.8c0.5,1,0.8,2.2,0.9,3.6c0.1,1.4,0.1,3.1,0.1,5.1v24.5h-10.9V55.7c0-1.1,0-2.3,0-3.5
	c0-1.2-0.2-2.2-0.4-2.9c-0.2-0.8-0.6-1.4-1-1.8c-0.5-0.5-0.9-0.8-1.4-1c-0.5-0.2-0.9-0.4-1.4-0.4c-0.5,0-0.8-0.1-1-0.1
	c-0.5,0-1.1,0.1-1.8,0.3c-0.7,0.2-1.3,0.5-1.8,0.9c-1.1,0.8-1.7,1.8-1.8,3c-0.2,1.2-0.3,2.8-0.3,4.9v20.4h-10.9V53.2
	c0-0.8,0-1.7-0.1-2.7c-0.1-1-0.4-1.9-0.9-2.6c-0.4-0.6-1-1-1.8-1.4c-0.8-0.4-1.6-0.5-2.5-0.5c-0.4,0-0.9,0.1-1.4,0.2
	c-0.5,0.1-1.1,0.3-1.6,0.7c-0.6,0.4-1.1,0.9-1.4,1.5c-0.3,0.6-0.6,1.2-0.8,1.8c-0.2,0.6-0.3,1.3-0.3,2c0,0.7,0,1.4,0,2v21.4h-10.9
	V37.9h10.9V41.8z"/>
<rect x="385.4" y="24.6" fill="#EE1C4E" width="24.9" height="9.9"/>
<rect x="385.4" y="43.7" fill="#EE1C4E" width="23.2" height="9.7"/>
<rect x="385.4" y="65.4" fill="#EE1C4E" width="27.1" height="10"/>
</svg>
