<?xml version="1.0" encoding="utf-8"?>
<!-- Generator: Adobe Illustrator 23.0.3, SVG Export Plug-In . SVG Version: 6.00 Build 0)  -->
<svg version="1.1" id="Layer_1" xmlns="http://www.w3.org/2000/svg" xmlns:xlink="http://www.w3.org/1999/xlink" x="0px" y="0px"
	 viewBox="0 0 190 188" style="enable-background:new 0 0 190 188;" xml:space="preserve">
<path id="J_-_right" d="M102.8,121.1l11.9-13.1c4.5,5.3,9.4,8.2,14.8,8.2c7,0,10.7-2.9,10.7-12.7V70.6h-30.4V52.9h51.7v52.6
	c0,16-8.2,29.6-31.2,29.6C120.9,134.2,110.2,131,102.8,121.1z"/>
<path id="J_-_left" d="M28.5,121.1L40.4,108c4.5,5.3,9.4,8.2,14.8,8.2c7,0,10.7-2.9,10.7-12.7V70.6H35.5V52.9h51.7v52.6
	c0,16-8.2,29.6-31.2,29.6C47,134.2,35.9,131,28.5,121.1z"/>
</svg>
